<?xml version="1.0" encoding="UTF-8"?>
<svg id="Layer_1" data-name="Layer 1" xmlns="http://www.w3.org/2000/svg" viewBox="0 0 170.86 98.59">
  <defs>
    <style>
      .cls-1 {
        fill-rule: evenodd;
      }

      .cls-1, .cls-2 {
        fill: #fff;
        stroke-width: 0px;
      }
    </style>
  </defs>
  <g id="Layer_1-2" data-name="Layer_1">
    <g id="_2772388733168" data-name=" 2772388733168">
      <path class="cls-1" d="M75.1,18.37c.16,1.55.9,2.99,2.08,4.02h-19.36c.33-1.37.76-2.71,1.29-4.02h15.98ZM75.6,16.87c1.19-1.03,1.94-2.48,2.1-4.05h10.42c.15,1.57.9,3.01,2.08,4.05h-14.61,0ZM58.14,16.87c-1.01,2.24-1.73,4.59-2.14,7.01h4.44c.16,1.58.92,3.05,2.14,4.08h-6.97c-.05,1.86.09,3.71.4,5.54h-24.59v1.47h30.77c.16,1.58.92,3.05,2.14,4.08h-6.79c.75,1.95,1.72,3.81,2.87,5.54h-22.94v1.47h35.2c.31,3.15,2.96,5.55,6.12,5.55h20.24c-9.74,6.26-22.39,5.67-31.51-1.47H17.15v1.47h49.85c6.32,4.76,14.32,6.7,22.12,5.37,7.8-1.33,14.68-5.79,19.06-12.38h-4.26c1.21-1.03,1.98-2.49,2.14-4.08h4.38c1.01-2.24,1.73-4.59,2.14-7.01h-7.25c1.14-1.12,1.95-2.53,2.34-4.08h5.31c.06-2.36-.17-4.71-.69-7.01h-5.85c-1.14-1.69-2.84-2.92-4.81-3.48-.15-.04-.24-.17-.23-.32.02-.15.16-.26.31-.27h9.34c-.75-1.95-1.72-3.81-2.87-5.54h20.22v-1.47h-39.71c1.21-1.03,1.98-2.49,2.14-4.08h59.78v-1.47h-49.03c-6.32-4.76-14.33-6.7-22.12-5.37-7.8,1.33-14.68,5.79-19.06,12.38h5.06c.16,1.58.92,3.05,2.14,4.08h-9.45,0ZM72.71,23.91h18.49c-.53,1.27-.76,2.64-.66,4.02h-19.91c1.18-1.03,1.92-2.46,2.08-4.02h0ZM74.45,35h20.71c2.56,1.36,5.62,1.36,8.18,0h7.42c-.33,1.37-.76,2.71-1.29,4.02h-37.09c1.18-1.03,1.92-2.46,2.08-4.02h0ZM78.56,40.55c.16,1.55.9,2.99,2.08,4.02h-18.45c-.91-1.27-1.71-2.61-2.39-4.02h18.76,0ZM82.85,50.11c1.18-1.03,1.92-2.46,2.08-4.02h20.27c-1.23,1.48-2.62,2.83-4.14,4.02h-18.22ZM85.33,22.39c1.18-1.03,1.92-2.46,2.08-4.02h9.16c.15,0,.28.1.31.25.03.15-.07.3-.22.34-1.88.59-3.51,1.79-4.62,3.43h-6.71ZM98.35,16.84c1.18-1.03,1.92-2.46,2.08-4.02h5.96c.91,1.27,1.71,2.61,2.39,4.02h-10.43ZM80.64,11.3h-17.26C72.13.77,87.36-1.6,98.91,5.75h-20.32c-.3,2.08.47,4.16,2.05,5.55ZM75.77,29.46c.16,1.55.91,2.99,2.08,4.02h-20.34c-.24-1.33-.37-2.67-.41-4.02h18.68ZM88.08,29.46h2.72c.39,1.52,1.18,2.91,2.29,4.02h-7.09c1.18-1.03,1.92-2.46,2.08-4.02h0ZM90.87,40.55h2.92c.16,1.55.9,2.99,2.08,4.02h-7.09c1.18-1.03,1.92-2.46,2.08-4.02h0ZM107.3,23.91h3.78c.24,1.33.37,2.67.41,4.02h-3.53c.1-1.37-.12-2.75-.66-4.02Z"/>
      <path class="cls-1" d="M29.28,83.4c0,.4,2.59,1.5,3.04,1.74.33-1.42,1.08-1.45,1.08-3.25-3.05-1.61-2.61-1.77-3.4-.14-.2.42-.72,1.28-.72,1.66h0Z"/>
      <path class="cls-1" d="M106.27,83.61l3.03,1.52c.17-.74.33-.9.7-1.48.35-.56.44-.88.6-1.57-.87-.58-1.71-1.41-3.04-1.52-.28,1.18-1.03,1.85-1.3,3.04h0Z"/>
      <path class="cls-1" d="M110.61,83.61l3.04,1.52c.92-1.74,1.3-1.75,1.3-3.26l-2.78-1.38-1.56,3.11h0Z"/>
      <path class="cls-1" d="M34.05,83.61l3.03,1.52c.6-1.14,1.3-2.22,1.3-3.26-.73-.39-2.13-1.23-3.04-1.3-.28,1.18-1.03,1.85-1.3,3.04h0Z"/>
      <path class="cls-1" d="M67.02,69.3c1.55.36,1.93,1.27,3.25,1.3.33-1.42,1.08-1.45,1.08-3.25-.73-.39-2.13-1.23-3.04-1.3-.29,1.23-1.2,1.98-1.3,3.25h0Z"/>
      <path class="cls-1" d="M139.89,66.04c-.29,1.23-1.2,1.98-1.3,3.25.64.15,1,.38,1.52.65.62.32.78.63,1.73.65.33-1.42,1.08-1.45,1.08-3.25-.73-.39-2.13-1.23-3.04-1.3h0Z"/>
      <path class="cls-1" d="M76.34,69.3c.89.21,2.48,1.3,3.04,1.3.31,0,1.52-2.36,1.52-2.82,0-.41-2.27-1.74-2.82-1.74-.34,0-1.69,2.72-1.74,3.25h0Z"/>
      <path class="cls-1" d="M96.3,69.3c.59.69,2.48,1.3,3.04,1.3.31,0,1.52-2.36,1.52-2.82,0-.34-2.6-1.74-2.6-1.74-.63,0-.6.38-1.22,1.39-.36.59-1.23,1.29-.74,1.87Z"/>
      <path class="cls-1" d="M71.57,69.3c.89.21,2.48,1.3,3.04,1.3.18,0,1.52-1.88,1.52-3.25-.41-.22-2.44-1.3-2.82-1.3s-1.61,2.72-1.74,3.25Z"/>
      <path class="cls-1" d="M40.56,79.92c1.01-.27,1.16-1.78,1.44-3.34.63-3.53.08-1.5.08-4.25v-7.16h-2.6l1.08,14.75h0Z"/>
      <path class="cls-1" d="M4.99,72.33c1.4.37,5.21,3.94,5.21,6.51v.43c-.69.46-1.03.73-2.07.96-1.51.33-4.73.62-6.25-.01-.8-.33-.79-.58-.79-1.6h-.43c-.42,1.78-.65,1.34-.65,3.69,0,2.61,9.06,2.73,10.84-.22,3.77-6.22-3.5-13.54-4.77-13.88-.27.55-1.07,3.36-1.08,4.12h0Z"/>
      <path class="cls-1" d="M50.75,74.94h-.43c-.02-.92-.39-1.82-.72-2.53-.22-.47-.23-.58-.44-1.07-.33-.77-.36-.39-.57-1.17h-.65c-.69,2.95-2.49,2.62-.81,4.28.52.51.37.35.74.99,1.77,3.07.12,5.73-2.49,7.78-2.72,2.14-4.65,2.07-5.47,2.78h7.37c.17-.65,1.28-1.84,1.92-3.5.48-1.24,1.2-2.8,1.33-4.31l.59.71c.25.28.39.44.7.6,1.59.84,4.2.25,5.65-.44,0,2.12-.86,3.02-1.82,4.26-.39.5-.39.35-.83.69l-2.56,1.99h4.77c.46-1.73,4.3-5.8,1.27-13.64-1.08-2.79-3.87-4.43-6.05-.68-.47.8-1.42,2.15-1.51,3.26h0ZM52.27,75.15c0-3.34,3.94-1.99,4.55.65-2.73,1.45-4.55.58-4.55-.65Z"/>
      <path class="cls-1" d="M24.29,71.25c0,2.09-.19,4.34-2.6,4.34-.78,0-.65-4.23-3.33-5.78-3.47-2.01-6,5.78-6,6.65,0,4.19,4.4,3.92,7.16,2.6,0,1.75-.19,2.18-1.14,3.41-.28.36-.37.55-.65.87-1.1,1.31-2.95,2.02-3.42,2.66h4.77c.24-.45.54-.93.77-1.4.78-1.56,1.47-3.59,1.62-5.32.96,0,1.3-.09,1.92-.47.59-.36.93-.77,1.12-1.48.69.5,1.02,1.95,3.25,1.95s6.42.31,7.81-.43c2.96-1.57,2.58-5.59,1.71-8.22-.19-.58-.38-.95-.66-1.51-.55-1.11-.52-.97-1.05-1.12l-1.52,3.04c1.15.77,1.76,2.41,2.17,3.25-.38.73-.61,1.3-1.74,1.3-2.46,0-6.88.51-7.58-.88-.43-.86-.45-8.11-.45-9.53h-2.17v6.07h0ZM14.31,75.15c0-1.29.33-1.16.87-1.95,1.67,0,3.49.4,3.69,2.82-.58.14-1.87.63-2.39.63-.96,0-1.59-.68-2.17-1.06v-.43h0Z"/>
      <path class="cls-1" d="M60.29,73.85c0,7.22,2.29,6.29,8.46,6.29,2.51,0,2.13-1.34,3.25-2.17.61,2.28,3.67,2.77,5.37,1.46.63-.48,1.13-.63,1.36-1.46h.43c.56,2.41,2.33,2.17,4.34,2.17,1.39,0,2.14-.39,3.04-.87,0,3.43.35,3.91,2.11,5.69.72.73,1.32,1.13,2.37,1.54,5.25,2.05,13.96-.78,15.26-6.36,2.28,0,2.77.18,4.34-.65v.65c2.12,0,5.05.38,5.64-2.17,1.62,1.08,1,2.17,3.69,2.17,1.99,0,2.5-1.38,3.69-2.17.52.98.94,1.88,2.17,2.17l-.22,2.6c0,2.53,6.31,2.05,8,1.5,2.63-.86.9-.41,2.41-.41,3.15,0,3.9.45,6.51-1.3v1.3c5.53,0,5.95-2.03,7.79-1.94,2.7.12,7.55,3.03,10.05.7.8-.74.64-.82,1.68-1.36,1.97,1.04,3.51,2.39,6.29,2.39,4.06,0,2.96-10.63-1.08-10.63-1.13,0-2,.39-2.73,1.39-1.2,1.64-2.34,3.29-3.93,4.53-.54.42-.37.41-1.15.59,0-2.83-2.06-5.4-4.08-6.98-.35-.28-.35-.21-.75-.55l-2.33-1.79c-3.69-2.27-3.74-2.38-5.12-.13-.42.68-.71,1.13-.74,2.08h.65c-.47,1.77-2.77,2.55-1.28,6.05.25.58.71,1.02,1.06,1.54-.88.21-2.18.43-3.25.43.89-3.83-.98-5.26-1.52-7.59-1.03.09-.79.25-1.23,1.16-.92,1.9-.83,1.51.32,3.22,2.44,3.65-1.21,3.21-3.86,3.21,1-4.31-1.77-7.88-4.5-10.68-.57-.59-.44-.74-1.36-.81-.12,1.5-.87,2.58-.87,4.12.84.23,1.09.65,1.69,1.13,1.73,1.36,3.51,3.4,3.51,5.82-.82.55-1.24.77-2.47,1-1.91.37-4.71.55-6.43-.35.53-.73,1.41-1.15,1.92-1.99,1.05-1.75,1.09-4.4.33-6.33-.21-.54-.33-.73-.59-1.37-.29-.72-.31-.76-1-.95l-1.3,2.82c.72,1.07,1.95,2,1.95,3.69-1.23.59-2.05.42-2.99-.7-.54-.64-.58-1.19-.92-1.9-.93.25-1.05,1.11-1.67,1.8-2.12,2.33-4.65.86-5.27-1.8h-.65c-.53,2.28-2.05,2.82-4.34,2.82.38-1.62.08-3.52-.46-4.96-.32-.85-.84-2.39-1.71-2.63-.18.79-.36.79-.73,1.44-.32.58-.51,1.07-.79,1.59,1.22,1.82.65.08,2.17,3.25-.97,1.83-2.45,1.3-4.34,1.3,0-3.34-1.4-4.34-1.95-6.72h-.43c-.7,3.03-2.59,1.65-.6,4.72,1.58,2.44,2.21,5.35-.47,7.21-.68.47-1.18.56-1.99.83-5.14,1.72-12.55.89-12.55-4.31,1.63,1.09,5.07,3.36,7,1.58,2.29-2.1,1.54-6.67-.19-8.83-.43-.54-.04-.09-.56-.53-3.98-3.35-5.77,5.49-9.73,5.82,0-1.4-.03-3.04-.51-4.26-.19-.47-.4-.77-.57-1.17-.37-.84.03-.59-.65-1.08-.47.35-1.52,2.18-1.52,2.82,0,.29,1.95,2.18,1.95,3.25,0,1.43-3.64,1.05-3.9-2.17-1.09.09-1.21,1.11-1.89,1.8-1.77,1.77-3.91,1.53-4.9-.86-.39-.95.15-.4-.58-.93-2.43,1.78,1.25,2.82-7.81,2.82-2.17,0-2-2.33-2.17-4.77-.16-2.13,0-4.37,0-6.51h-2.17v8.68h0ZM153.77,75.8c1.2.63,2.91,2.3,3.55,3.62.78,1.59-.3,1.11-1.47.81l-2.95-.74c.12-1.49.87-1.34.87-3.69ZM166.35,76.24c.44,0,.75.27,1.03.48l.79.73c1.23,1.4,2.4,5.36-3.42,2.12-.57-.32-.53-.41-1.01-.73.44-.83,1.44-2.6,2.6-2.6ZM147.27,75.59c0-1.56,1.39-1.74,2.6-1.74,1.02,0,2.08.35,2.17,1.08.56,4.6-4.77,3.12-4.77.65h0ZM89.79,75.37c.43-.64,1.47-2.39,2.39-2.39,1.57,0,3.04,1.94,3.04,4.12l-.86.45c-1.72-.15-3.81-1.06-4.56-2.18h0Z"/>
      <path class="cls-2" d="M4.09,98.47H0v-7.42h3.92v.79H.91v2.47h2.79v.78H.91v2.6h3.19v.79h0ZM8.29,95.85h-2.94v-.67h2.94v.67ZM14,98.47h-4.01v-7.42h.91v6.63h3.1v.79h0ZM17.93,98.59c-1.1,0-1.97-.35-2.63-1.04-.66-.69-.99-1.59-.99-2.7,0-1.19.34-2.15,1.01-2.85.67-.71,1.59-1.07,2.74-1.07,1.07,0,1.93.35,2.58,1.03.65.69.98,1.59.98,2.71,0,1.21-.33,2.17-1,2.87-.67.7-1.56,1.05-2.68,1.05h0ZM17.99,91.72c-.81,0-1.47.28-1.98.84-.51.56-.76,1.3-.76,2.21s.25,1.65.74,2.21c.49.56,1.14.84,1.93.84.85,0,1.52-.26,2.01-.8.49-.53.73-1.27.73-2.23s-.24-1.74-.71-2.27c-.47-.53-1.13-.8-1.96-.8h0ZM26.25,98.59c-1.1,0-1.97-.35-2.63-1.04-.66-.69-.99-1.59-.99-2.7,0-1.19.34-2.15,1.01-2.85.67-.71,1.59-1.07,2.74-1.07,1.07,0,1.93.35,2.58,1.03.65.69.98,1.59.98,2.71,0,1.21-.33,2.17-1,2.87-.67.7-1.56,1.05-2.68,1.05h0ZM26.31,91.72c-.81,0-1.47.28-1.98.84-.51.56-.76,1.3-.76,2.21s.25,1.65.74,2.21c.49.56,1.14.84,1.93.84.85,0,1.52-.26,2.01-.8.49-.53.73-1.27.73-2.23s-.24-1.74-.71-2.27c-.47-.53-1.13-.8-1.96-.8h0ZM31.45,98.47v-7.42h2.13c2.72,0,4.09,1.2,4.09,3.62,0,1.14-.38,2.06-1.13,2.76-.76.69-1.77,1.04-3.04,1.04h-2.05,0ZM32.36,91.84v5.85h1.15c1.01,0,1.8-.26,2.37-.78.56-.52.85-1.26.85-2.21,0-1.9-1.05-2.85-3.16-2.85h-1.21,0Z"/>
      <path class="cls-2" d="M50.17,98.16c-.56.29-1.27.43-2.11.43-1.09,0-1.96-.34-2.62-1.02-.66-.68-.98-1.57-.98-2.67,0-1.18.37-2.14,1.11-2.87.74-.73,1.67-1.1,2.8-1.1.73,0,1.33.1,1.8.31v.93c-.55-.3-1.15-.44-1.82-.44-.88,0-1.59.28-2.14.85-.55.57-.82,1.33-.82,2.28s.26,1.62.77,2.16c.51.54,1.18.81,2.01.81.77,0,1.43-.17,2-.5v.84h0ZM54.68,98.59c-1.09,0-1.96-.35-2.61-1.04-.65-.69-.98-1.59-.98-2.7,0-1.19.33-2.15,1-2.85.67-.71,1.57-1.07,2.72-1.07,1.06,0,1.91.35,2.55,1.03.65.69.97,1.59.97,2.71,0,1.21-.33,2.17-.99,2.87-.66.7-1.55,1.05-2.66,1.05h0ZM54.74,91.72c-.8,0-1.46.28-1.96.84-.5.56-.75,1.3-.75,2.21s.24,1.65.73,2.21c.49.56,1.13.84,1.91.84.84,0,1.5-.26,1.99-.8.48-.53.73-1.27.73-2.23s-.23-1.74-.7-2.27c-.47-.53-1.12-.8-1.94-.8h0ZM66.01,98.47h-1.1l-3.94-5.91c-.1-.15-.18-.3-.25-.46h-.03c.03.16.04.5.04,1.02v5.36h-.9v-7.42h1.16l3.83,5.82c.16.24.26.41.31.5h.02c-.04-.21-.05-.58-.05-1.09v-5.22h.9v7.42h0ZM67.65,98.17v-1.02c.12.1.27.2.44.28.17.08.35.15.53.21.19.06.38.1.56.13.19.03.36.05.52.05.55,0,.96-.1,1.24-.3.27-.2.41-.48.41-.85,0-.2-.05-.37-.14-.52-.09-.15-.22-.28-.38-.41-.16-.12-.35-.24-.57-.35-.22-.11-.46-.23-.71-.35-.27-.13-.52-.26-.75-.4-.23-.13-.43-.28-.6-.44-.17-.16-.3-.35-.4-.55-.1-.2-.15-.44-.15-.72,0-.34.08-.63.23-.88.15-.25.36-.46.6-.62.25-.16.53-.28.85-.36.32-.08.64-.12.97-.12.75,0,1.3.09,1.65.26v.98c-.45-.3-1.03-.46-1.74-.46-.2,0-.39.02-.59.06-.19.04-.37.11-.52.19-.15.09-.28.21-.37.35-.1.14-.14.31-.14.52,0,.19.04.35.11.49.07.14.18.26.32.38.14.11.32.22.52.33.2.11.44.22.71.35.28.13.53.27.78.41.25.14.46.31.65.48.19.18.33.37.44.58.11.21.16.46.16.73,0,.37-.07.68-.22.93-.15.25-.35.46-.6.62-.25.16-.54.27-.87.34-.33.07-.67.11-1.04.11-.12,0-.27,0-.45-.03-.18-.02-.36-.05-.54-.08-.18-.04-.36-.08-.52-.13s-.3-.11-.4-.18h0ZM79.42,95.47c0,2.08-.97,3.12-2.91,3.12s-2.79-1-2.79-3v-4.54h.9v4.48c0,1.52.66,2.28,1.99,2.28s1.92-.73,1.92-2.2v-4.56h.9v4.42h0ZM85.3,98.47h-3.97v-7.42h.9v6.63h3.07v.79ZM90.4,91.84h-2.21v6.63h-.9v-6.63h-2.21v-.79h5.31v.79ZM92.5,98.47h-.9v-7.42h.9v7.42ZM100.69,98.47h-1.1l-3.94-5.91c-.1-.15-.18-.3-.25-.46h-.03c.03.16.04.5.04,1.02v5.36h-.9v-7.42h1.16l3.83,5.82c.16.24.26.41.31.5h.02c-.04-.21-.05-.58-.05-1.09v-5.22h.9v7.42h0ZM108.42,97.96c-.77.42-1.62.63-2.56.63-1.09,0-1.98-.34-2.65-1.02-.68-.68-1.01-1.59-1.01-2.71s.38-2.09,1.12-2.83c.75-.74,1.7-1.11,2.85-1.11.83,0,1.53.13,2.1.39v.96c-.62-.38-1.35-.57-2.2-.57s-1.56.29-2.11.86c-.55.57-.82,1.31-.82,2.22s.26,1.68.76,2.21c.51.54,1.2.81,2.07.81.6,0,1.12-.12,1.55-.35v-2.08h-1.68v-.79h2.57v3.36h0Z"/>
      <path class="cls-2" d="M119.98,98.47h-4.12v-7.54h3.95v.8h-3.04v2.51h2.81v.79h-2.81v2.64h3.21v.8h0ZM127.74,98.47h-1.12l-4-6.01c-.1-.15-.18-.31-.25-.47h-.03c.03.16.04.51.04,1.04v5.45h-.91v-7.54h1.18l3.89,5.91c.16.24.27.41.31.5h.02c-.04-.22-.06-.59-.06-1.11v-5.31h.91v7.54h0ZM135.59,97.95c-.78.43-1.65.64-2.6.64-1.11,0-2-.35-2.69-1.04-.69-.69-1.03-1.61-1.03-2.75s.38-2.12,1.14-2.87c.76-.75,1.72-1.12,2.89-1.12.85,0,1.56.13,2.13.4v.98c-.63-.39-1.37-.58-2.23-.58s-1.58.29-2.14.87c-.56.58-.83,1.33-.83,2.26s.26,1.7.77,2.25c.52.55,1.22.82,2.1.82.61,0,1.13-.12,1.58-.35v-2.11h-1.7v-.8h2.61v3.42h0ZM138.3,98.47h-.91v-7.54h.91v7.54h0ZM146.61,98.47h-1.12l-4-6.01c-.1-.15-.18-.31-.25-.47h-.03c.03.16.04.51.04,1.04v5.45h-.91v-7.54h1.18l3.89,5.91c.16.24.27.41.31.5h.02c-.04-.22-.06-.59-.06-1.11v-5.31h.91v7.54h0ZM152.76,98.47h-4.12v-7.54h3.95v.8h-3.04v2.51h2.81v.79h-2.81v2.64h3.21v.8h0ZM158.38,98.47h-4.12v-7.54h3.95v.8h-3.04v2.51h2.81v.79h-2.81v2.64h3.21v.8h0ZM165.45,98.47h-1.08l-1.3-2.11c-.12-.2-.23-.36-.35-.5-.11-.14-.23-.25-.34-.34-.12-.09-.24-.15-.38-.19-.14-.04-.29-.06-.46-.06h-.75v3.21h-.91v-7.54h2.32c.34,0,.65.04.94.12.29.08.54.21.75.38.21.17.38.38.5.63.12.25.18.54.18.88,0,.26-.04.5-.12.72-.08.22-.2.41-.35.58-.15.17-.33.32-.54.44-.21.12-.45.22-.71.28v.02c.13.06.24.12.34.19.09.07.19.16.27.26.09.1.17.21.26.33.09.12.18.27.28.43l1.46,2.27h0ZM160.78,91.73v2.73h1.24c.23,0,.44-.03.63-.1.19-.07.36-.16.5-.29.14-.12.25-.28.33-.46.08-.18.12-.38.12-.61,0-.4-.13-.72-.4-.94-.27-.23-.66-.34-1.17-.34h-1.25,0ZM166.15,98.16v-1.04c.12.11.27.2.44.28.17.08.35.16.54.21.19.06.38.1.57.13.19.03.37.05.53.05.56,0,.98-.1,1.26-.3.28-.2.41-.49.41-.87,0-.2-.05-.38-.14-.53-.09-.15-.22-.29-.38-.41-.16-.13-.36-.24-.58-.36-.22-.11-.46-.23-.72-.36-.27-.13-.52-.27-.76-.41-.23-.14-.44-.29-.61-.45-.17-.17-.31-.35-.41-.56-.1-.21-.15-.45-.15-.73,0-.34.08-.64.23-.9.16-.25.36-.46.61-.63.25-.17.54-.29.87-.37.32-.08.65-.12.99-.12.77,0,1.32.09,1.68.27v.99c-.46-.31-1.05-.46-1.77-.46-.2,0-.4.02-.6.06-.2.04-.38.11-.53.2-.16.09-.28.21-.38.35-.1.14-.15.32-.15.53,0,.19.04.36.11.5.07.14.18.27.33.38.14.11.32.23.53.34.21.11.45.23.72.36.28.13.54.27.79.42.25.15.47.31.65.49.19.18.34.38.45.59.11.22.16.47.16.75,0,.37-.07.69-.22.94-.15.26-.35.47-.61.63-.26.16-.55.28-.88.35-.33.07-.68.11-1.05.11-.12,0-.27,0-.46-.03-.18-.02-.36-.05-.55-.08-.19-.04-.36-.08-.53-.14-.17-.05-.3-.11-.41-.18h0Z"/>
    </g>
  </g>
</svg>