<?xml version="1.0" encoding="utf-8"?>
<!-- Generator: Adobe Illustrator 28.3.0, SVG Export Plug-In . SVG Version: 6.00 Build 0)  -->
<svg version="1.1" id="Layer_1" xmlns="http://www.w3.org/2000/svg" xmlns:xlink="http://www.w3.org/1999/xlink" x="0px" y="0px"
	 viewBox="0 0 170.9 98.6" style="enable-background:new 0 0 170.9 98.6;" xml:space="preserve">
<style type="text/css">
	.st0{fill-rule:evenodd;clip-rule:evenodd;fill:#565656;}
	.st1{fill:#565656;}
</style>
<g id="Layer_1-2">
	<g id="_2772388733168">
		<path class="st0" d="M75.1,18.4c0.2,1.5,0.9,3,2.1,4H57.8c0.3-1.4,0.8-2.7,1.3-4H75.1L75.1,18.4z M75.6,16.9
			c1.2-1,1.9-2.5,2.1-4.1h10.4c0.2,1.6,0.9,3,2.1,4.1H75.6L75.6,16.9L75.6,16.9z M58.1,16.9c-1,2.2-1.7,4.6-2.1,7h4.4
			c0.2,1.6,0.9,3,2.1,4.1h-7c0,1.9,0.1,3.7,0.4,5.5H31.4V35h30.8c0.2,1.6,0.9,3,2.1,4.1h-6.8c0.8,2,1.7,3.8,2.9,5.5H37.5v1.5h35.2
			c0.3,3.2,3,5.5,6.1,5.5H99c-9.7,6.3-22.4,5.7-31.5-1.5H17.1v1.5H67c6.3,4.8,14.3,6.7,22.1,5.4s14.7-5.8,19.1-12.4h-4.3
			c1.2-1,2-2.5,2.1-4.1h4.4c1-2.2,1.7-4.6,2.1-7h-7.2c1.1-1.1,1.9-2.5,2.3-4.1h5.3c0.1-2.4-0.2-4.7-0.7-7h-5.8
			c-1.1-1.7-2.8-2.9-4.8-3.5c-0.2,0-0.2-0.2-0.2-0.3c0-0.1,0.2-0.3,0.3-0.3h9.3c-0.8-2-1.7-3.8-2.9-5.5h20.2v-1.5H88.7
			c1.2-1,2-2.5,2.1-4.1h59.8V5.8h-49C95.3,1,87.2-0.9,79.5,0.4c-7.8,1.3-14.7,5.8-19.1,12.4h5.1c0.2,1.6,0.9,3.1,2.1,4.1L58.1,16.9
			L58.1,16.9L58.1,16.9z M72.7,23.9h18.5c-0.5,1.3-0.8,2.6-0.7,4H70.6C71.8,26.9,72.5,25.5,72.7,23.9C72.7,23.9,72.7,23.9,72.7,23.9
			z M74.4,35h20.7c2.6,1.4,5.6,1.4,8.2,0h7.4c-0.3,1.4-0.8,2.7-1.3,4H72.4C73.6,38,74.3,36.6,74.4,35L74.4,35L74.4,35z M78.6,40.5
			c0.2,1.5,0.9,3,2.1,4H62.2c-0.9-1.3-1.7-2.6-2.4-4H78.6L78.6,40.5z M82.8,50.1c1.2-1,1.9-2.5,2.1-4h20.3c-1.2,1.5-2.6,2.8-4.1,4
			H82.8L82.8,50.1z M85.3,22.4c1.2-1,1.9-2.5,2.1-4h9.2c0.2,0,0.3,0.1,0.3,0.2s-0.1,0.3-0.2,0.3c-1.9,0.6-3.5,1.8-4.6,3.4H85.3z
			 M98.3,16.8c1.2-1,1.9-2.5,2.1-4h6c0.9,1.3,1.7,2.6,2.4,4H98.3z M80.6,11.3H63.4c8.8-10.5,24-12.9,35.5-5.6H78.6
			C78.3,7.8,79.1,9.9,80.6,11.3z M75.8,29.5c0.2,1.5,0.9,3,2.1,4H57.5c-0.2-1.3-0.4-2.7-0.4-4H75.8L75.8,29.5z M88.1,29.5h2.7
			c0.4,1.5,1.2,2.9,2.3,4H86C87.2,32.5,87.9,31,88.1,29.5L88.1,29.5z M90.9,40.5h2.9c0.2,1.5,0.9,3,2.1,4h-7.1
			C90,43.5,90.7,42.1,90.9,40.5L90.9,40.5L90.9,40.5z M107.3,23.9h3.8c0.2,1.3,0.4,2.7,0.4,4H108C108.1,26.6,107.8,25.2,107.3,23.9z
			"/>
		<path class="st0" d="M29.3,83.4c0,0.4,2.6,1.5,3,1.7c0.3-1.4,1.1-1.4,1.1-3.2c-3-1.6-2.6-1.8-3.4-0.1C29.8,82.2,29.3,83,29.3,83.4
			L29.3,83.4L29.3,83.4z"/>
		<path class="st0" d="M106.3,83.6l3,1.5c0.2-0.7,0.3-0.9,0.7-1.5c0.3-0.6,0.4-0.9,0.6-1.6c-0.9-0.6-1.7-1.4-3-1.5
			C107.3,81.7,106.5,82.4,106.3,83.6L106.3,83.6L106.3,83.6z"/>
		<path class="st0" d="M110.6,83.6l3,1.5c0.9-1.7,1.3-1.8,1.3-3.3l-2.8-1.4L110.6,83.6L110.6,83.6L110.6,83.6z"/>
		<path class="st0" d="M34,83.6l3,1.5c0.6-1.1,1.3-2.2,1.3-3.3c-0.7-0.4-2.1-1.2-3-1.3C35.1,81.7,34.3,82.4,34,83.6L34,83.6L34,83.6
			z"/>
		<path class="st0" d="M67,69.3c1.6,0.4,1.9,1.3,3.2,1.3c0.3-1.4,1.1-1.4,1.1-3.2c-0.7-0.4-2.1-1.2-3-1.3C68,67.3,67.1,68,67,69.3
			L67,69.3L67,69.3z"/>
		<path class="st0" d="M139.9,66c-0.3,1.2-1.2,2-1.3,3.2c0.6,0.2,1,0.4,1.5,0.7c0.6,0.3,0.8,0.6,1.7,0.7c0.3-1.4,1.1-1.4,1.1-3.2
			C142.2,67,140.8,66.1,139.9,66L139.9,66L139.9,66z"/>
		<path class="st0" d="M76.3,69.3c0.9,0.2,2.5,1.3,3,1.3c0.3,0,1.5-2.4,1.5-2.8c0-0.4-2.3-1.7-2.8-1.7C77.7,66,76.4,68.8,76.3,69.3
			L76.3,69.3L76.3,69.3z"/>
		<path class="st0" d="M96.3,69.3c0.6,0.7,2.5,1.3,3,1.3c0.3,0,1.5-2.4,1.5-2.8c0-0.3-2.6-1.7-2.6-1.7c-0.6,0-0.6,0.4-1.2,1.4
			C96.7,68,95.8,68.7,96.3,69.3z"/>
		<path class="st0" d="M71.6,69.3c0.9,0.2,2.5,1.3,3,1.3c0.2,0,1.5-1.9,1.5-3.2c-0.4-0.2-2.4-1.3-2.8-1.3S71.7,68.8,71.6,69.3z"/>
		<path class="st0" d="M40.6,79.9c1-0.3,1.2-1.8,1.4-3.3c0.6-3.5,0.1-1.5,0.1-4.2v-7.2h-2.6L40.6,79.9
			C40.6,79.9,40.6,79.9,40.6,79.9z"/>
		<path class="st0" d="M5,72.3c1.4,0.4,5.2,3.9,5.2,6.5v0.4c-0.7,0.5-1,0.7-2.1,1c-1.5,0.3-4.7,0.6-6.2,0c-0.8-0.3-0.8-0.6-0.8-1.6
			H0.7C0.2,80.4,0,80,0,82.3c0,2.6,9.1,2.7,10.8-0.2c3.8-6.2-3.5-13.5-4.8-13.9C5.8,68.8,5,71.6,5,72.3L5,72.3L5,72.3z"/>
		<path class="st0" d="M50.8,74.9h-0.4c0-0.9-0.4-1.8-0.7-2.5c-0.2-0.5-0.2-0.6-0.4-1.1c-0.3-0.8-0.4-0.4-0.6-1.2h-0.7
			c-0.7,2.9-2.5,2.6-0.8,4.3c0.5,0.5,0.4,0.3,0.7,1c1.8,3.1,0.1,5.7-2.5,7.8c-2.7,2.1-4.7,2.1-5.5,2.8h7.4c0.2-0.7,1.3-1.8,1.9-3.5
			c0.5-1.2,1.2-2.8,1.3-4.3l0.6,0.7c0.2,0.3,0.4,0.4,0.7,0.6c1.6,0.8,4.2,0.2,5.7-0.4c0,2.1-0.9,3-1.8,4.3c-0.4,0.5-0.4,0.3-0.8,0.7
			l-2.6,2H57c0.5-1.7,4.3-5.8,1.3-13.6c-1.1-2.8-3.9-4.4-6-0.7C51.8,72.5,50.8,73.8,50.8,74.9L50.8,74.9L50.8,74.9z M52.3,75.2
			c0-3.3,3.9-2,4.5,0.7C54.1,77.2,52.3,76.4,52.3,75.2z"/>
		<path class="st0" d="M24.3,71.2c0,2.1-0.2,4.3-2.6,4.3c-0.8,0-0.6-4.2-3.3-5.8c-3.5-2-6,5.8-6,6.7c0,4.2,4.4,3.9,7.2,2.6
			c0,1.8-0.2,2.2-1.1,3.4c-0.3,0.4-0.4,0.6-0.6,0.9c-1.1,1.3-2.9,2-3.4,2.7h4.8c0.2-0.4,0.5-0.9,0.8-1.4c0.8-1.6,1.5-3.6,1.6-5.3
			c1,0,1.3-0.1,1.9-0.5c0.6-0.4,0.9-0.8,1.1-1.5c0.7,0.5,1,1.9,3.2,1.9s6.4,0.3,7.8-0.4c3-1.6,2.6-5.6,1.7-8.2
			c-0.2-0.6-0.4-0.9-0.7-1.5c-0.5-1.1-0.5-1-1-1.1l-1.5,3c1.2,0.8,1.8,2.4,2.2,3.2c-0.4,0.7-0.6,1.3-1.7,1.3c-2.5,0-6.9,0.5-7.6-0.9
			c-0.4-0.9-0.5-8.1-0.5-9.5h-2.2L24.3,71.2L24.3,71.2L24.3,71.2z M14.3,75.2c0-1.3,0.3-1.2,0.9-1.9c1.7,0,3.5,0.4,3.7,2.8
			c-0.6,0.1-1.9,0.6-2.4,0.6c-1,0-1.6-0.7-2.2-1.1L14.3,75.2L14.3,75.2L14.3,75.2z"/>
		<path class="st0" d="M60.3,73.8c0,7.2,2.3,6.3,8.5,6.3c2.5,0,2.1-1.3,3.2-2.2c0.6,2.3,3.7,2.8,5.4,1.5c0.6-0.5,1.1-0.6,1.4-1.5
			h0.4c0.6,2.4,2.3,2.2,4.3,2.2c1.4,0,2.1-0.4,3-0.9c0,3.4,0.3,3.9,2.1,5.7c0.7,0.7,1.3,1.1,2.4,1.5c5.2,2.1,14-0.8,15.3-6.4
			c2.3,0,2.8,0.2,4.3-0.7v0.7c2.1,0,5.1,0.4,5.6-2.2c1.6,1.1,1,2.2,3.7,2.2c2,0,2.5-1.4,3.7-2.2c0.5,1,0.9,1.9,2.2,2.2l-0.2,2.6
			c0,2.5,6.3,2.1,8,1.5c2.6-0.9,0.9-0.4,2.4-0.4c3.1,0,3.9,0.4,6.5-1.3v1.3c5.5,0,5.9-2,7.8-1.9c2.7,0.1,7.6,3,10.1,0.7
			c0.8-0.7,0.6-0.8,1.7-1.4c2,1,3.5,2.4,6.3,2.4c4.1,0,3-10.6-1.1-10.6c-1.1,0-2,0.4-2.7,1.4c-1.2,1.6-2.3,3.3-3.9,4.5
			c-0.5,0.4-0.4,0.4-1.1,0.6c0-2.8-2.1-5.4-4.1-7c-0.4-0.3-0.4-0.2-0.8-0.6l-2.3-1.8c-3.7-2.3-3.7-2.4-5.1-0.1
			c-0.4,0.7-0.7,1.1-0.7,2.1h0.6c-0.5,1.8-2.8,2.6-1.3,6.1c0.2,0.6,0.7,1,1.1,1.5c-0.9,0.2-2.2,0.4-3.2,0.4c0.9-3.8-1-5.3-1.5-7.6
			c-1,0.1-0.8,0.2-1.2,1.2c-0.9,1.9-0.8,1.5,0.3,3.2c2.4,3.7-1.2,3.2-3.9,3.2c1-4.3-1.8-7.9-4.5-10.7c-0.6-0.6-0.4-0.7-1.4-0.8
			c-0.1,1.5-0.9,2.6-0.9,4.1c0.8,0.2,1.1,0.7,1.7,1.1c1.7,1.4,3.5,3.4,3.5,5.8c-0.8,0.6-1.2,0.8-2.5,1c-1.9,0.4-4.7,0.6-6.4-0.3
			c0.5-0.7,1.4-1.2,1.9-2c1.1-1.8,1.1-4.4,0.3-6.3c-0.2-0.5-0.3-0.7-0.6-1.4c-0.3-0.7-0.3-0.8-1-0.9l-1.3,2.8c0.7,1.1,1.9,2,1.9,3.7
			c-1.2,0.6-2.1,0.4-3-0.7c-0.5-0.6-0.6-1.2-0.9-1.9c-0.9,0.2-1.1,1.1-1.7,1.8c-2.1,2.3-4.7,0.9-5.3-1.8h-0.7
			c-0.5,2.3-2.1,2.8-4.3,2.8c0.4-1.6,0.1-3.5-0.5-5c-0.3-0.8-0.8-2.4-1.7-2.6c-0.2,0.8-0.4,0.8-0.7,1.4c-0.3,0.6-0.5,1.1-0.8,1.6
			c1.2,1.8,0.7,0.1,2.2,3.2c-1,1.8-2.4,1.3-4.3,1.3c0-3.3-1.4-4.3-1.9-6.7h-0.4c-0.7,3-2.6,1.7-0.6,4.7c1.6,2.4,2.2,5.3-0.5,7.2
			c-0.7,0.5-1.2,0.6-2,0.8c-5.1,1.7-12.6,0.9-12.6-4.3c1.6,1.1,5.1,3.4,7,1.6c2.3-2.1,1.5-6.7-0.2-8.8c-0.4-0.5,0-0.1-0.6-0.5
			c-4-3.3-5.8,5.5-9.7,5.8c0-1.4,0-3-0.5-4.3c-0.2-0.5-0.4-0.8-0.6-1.2c-0.4-0.8,0-0.6-0.7-1.1c-0.5,0.3-1.5,2.2-1.5,2.8
			c0,0.3,1.9,2.2,1.9,3.2c0,1.4-3.6,1.1-3.9-2.2c-1.1,0.1-1.2,1.1-1.9,1.8C76.2,77.2,74,77,73,74.6c-0.4-0.9,0.2-0.4-0.6-0.9
			c-2.4,1.8,1.2,2.8-7.8,2.8c-2.2,0-2-2.3-2.2-4.8c-0.2-2.1,0-4.4,0-6.5h-2.2L60.3,73.8C60.3,73.9,60.3,73.9,60.3,73.8z M153.8,75.8
			c1.2,0.6,2.9,2.3,3.6,3.6c0.8,1.6-0.3,1.1-1.5,0.8l-2.9-0.7C153,78,153.8,78.2,153.8,75.8z M166.4,76.2c0.4,0,0.8,0.3,1,0.5
			l0.8,0.7c1.2,1.4,2.4,5.4-3.4,2.1c-0.6-0.3-0.5-0.4-1-0.7C164.2,78,165.2,76.2,166.4,76.2L166.4,76.2z M147.3,75.6
			c0-1.6,1.4-1.7,2.6-1.7c1,0,2.1,0.3,2.2,1.1C152.6,79.5,147.3,78.1,147.3,75.6L147.3,75.6L147.3,75.6z M89.8,75.4
			c0.4-0.6,1.5-2.4,2.4-2.4c1.6,0,3,1.9,3,4.1l-0.9,0.4C92.6,77.4,90.6,76.5,89.8,75.4L89.8,75.4L89.8,75.4z"/>
		<path class="st1" d="M4.1,98.5H0v-7.4h3.9v0.8h-3v2.5h2.8v0.8H0.9v2.6h3.2L4.1,98.5L4.1,98.5L4.1,98.5z M8.3,95.8H5.3v-0.7h2.9
			V95.8z M14,98.5h-4v-7.4h0.9v6.6H14V98.5L14,98.5z M17.9,98.6c-1.1,0-2-0.3-2.6-1s-1-1.6-1-2.7c0-1.2,0.3-2.2,1-2.8
			c0.7-0.7,1.6-1.1,2.7-1.1c1.1,0,1.9,0.3,2.6,1c0.6,0.7,1,1.6,1,2.7c0,1.2-0.3,2.2-1,2.9C20,98.2,19.1,98.6,17.9,98.6L17.9,98.6
			L17.9,98.6z M18,91.7c-0.8,0-1.5,0.3-2,0.8s-0.8,1.3-0.8,2.2s0.2,1.7,0.7,2.2s1.1,0.8,1.9,0.8c0.9,0,1.5-0.3,2-0.8
			c0.5-0.5,0.7-1.3,0.7-2.2S20.4,93,20,92.5S18.8,91.7,18,91.7L18,91.7L18,91.7z M26.2,98.6c-1.1,0-2-0.3-2.6-1
			c-0.7-0.7-1-1.6-1-2.7c0-1.2,0.3-2.2,1-2.8c0.7-0.7,1.6-1.1,2.7-1.1c1.1,0,1.9,0.3,2.6,1c0.6,0.7,1,1.6,1,2.7c0,1.2-0.3,2.2-1,2.9
			C28.3,98.2,27.4,98.6,26.2,98.6L26.2,98.6L26.2,98.6z M26.3,91.7c-0.8,0-1.5,0.3-2,0.8s-0.8,1.3-0.8,2.2s0.2,1.7,0.7,2.2
			s1.1,0.8,1.9,0.8c0.9,0,1.5-0.3,2-0.8c0.5-0.5,0.7-1.3,0.7-2.2s-0.2-1.7-0.7-2.3S27.1,91.7,26.3,91.7L26.3,91.7L26.3,91.7z
			 M31.5,98.5v-7.4h2.1c2.7,0,4.1,1.2,4.1,3.6c0,1.1-0.4,2.1-1.1,2.8c-0.8,0.7-1.8,1-3,1L31.5,98.5C31.5,98.5,31.5,98.5,31.5,98.5z
			 M32.4,91.8v5.8h1.2c1,0,1.8-0.3,2.4-0.8c0.6-0.5,0.8-1.3,0.8-2.2c0-1.9-1-2.8-3.2-2.8L32.4,91.8L32.4,91.8L32.4,91.8z"/>
		<path class="st1" d="M50.2,98.2c-0.6,0.3-1.3,0.4-2.1,0.4c-1.1,0-2-0.3-2.6-1s-1-1.6-1-2.7c0-1.2,0.4-2.1,1.1-2.9s1.7-1.1,2.8-1.1
			c0.7,0,1.3,0.1,1.8,0.3v0.9c-0.5-0.3-1.2-0.4-1.8-0.4c-0.9,0-1.6,0.3-2.1,0.8s-0.8,1.3-0.8,2.3s0.3,1.6,0.8,2.2
			c0.5,0.5,1.2,0.8,2,0.8c0.8,0,1.4-0.2,2-0.5V98.2L50.2,98.2L50.2,98.2z M54.7,98.6c-1.1,0-2-0.3-2.6-1s-1-1.6-1-2.7
			c0-1.2,0.3-2.2,1-2.8c0.7-0.7,1.6-1.1,2.7-1.1c1.1,0,1.9,0.3,2.5,1c0.7,0.7,1,1.6,1,2.7c0,1.2-0.3,2.2-1,2.9
			C56.7,98.2,55.8,98.6,54.7,98.6C54.7,98.6,54.7,98.6,54.7,98.6z M54.7,91.7c-0.8,0-1.5,0.3-2,0.8S52,93.9,52,94.8s0.2,1.7,0.7,2.2
			c0.5,0.6,1.1,0.8,1.9,0.8c0.8,0,1.5-0.3,2-0.8c0.5-0.5,0.7-1.3,0.7-2.2s-0.2-1.7-0.7-2.3S55.6,91.7,54.7,91.7L54.7,91.7L54.7,91.7
			z M66,98.5h-1.1L61,92.6c-0.1-0.2-0.2-0.3-0.2-0.5h0c0,0.2,0,0.5,0,1v5.4h-0.9v-7.4H61l3.8,5.8c0.2,0.2,0.3,0.4,0.3,0.5h0
			c0-0.2-0.1-0.6-0.1-1.1v-5.2H66L66,98.5L66,98.5L66,98.5z M67.7,98.2v-1c0.1,0.1,0.3,0.2,0.4,0.3c0.2,0.1,0.3,0.2,0.5,0.2
			c0.2,0.1,0.4,0.1,0.6,0.1c0.2,0,0.4,0.1,0.5,0.1c0.6,0,1-0.1,1.2-0.3c0.3-0.2,0.4-0.5,0.4-0.8c0-0.2-0.1-0.4-0.1-0.5
			c-0.1-0.2-0.2-0.3-0.4-0.4c-0.2-0.1-0.3-0.2-0.6-0.3s-0.5-0.2-0.7-0.3c-0.3-0.1-0.5-0.3-0.8-0.4c-0.2-0.1-0.4-0.3-0.6-0.4
			s-0.3-0.3-0.4-0.6c-0.1-0.2-0.2-0.4-0.2-0.7c0-0.3,0.1-0.6,0.2-0.9s0.4-0.5,0.6-0.6c0.2-0.2,0.5-0.3,0.8-0.4s0.6-0.1,1-0.1
			c0.8,0,1.3,0.1,1.7,0.3v1c-0.4-0.3-1-0.5-1.7-0.5c-0.2,0-0.4,0-0.6,0.1c-0.2,0-0.4,0.1-0.5,0.2c-0.2,0.1-0.3,0.2-0.4,0.3
			c-0.1,0.1-0.1,0.3-0.1,0.5c0,0.2,0,0.3,0.1,0.5s0.2,0.3,0.3,0.4c0.1,0.1,0.3,0.2,0.5,0.3s0.4,0.2,0.7,0.3c0.3,0.1,0.5,0.3,0.8,0.4
			c0.2,0.1,0.5,0.3,0.7,0.5c0.2,0.2,0.3,0.4,0.4,0.6s0.2,0.5,0.2,0.7c0,0.4-0.1,0.7-0.2,0.9s-0.3,0.5-0.6,0.6s-0.5,0.3-0.9,0.3
			s-0.7,0.1-1,0.1c-0.1,0-0.3,0-0.4,0c-0.2,0-0.4-0.1-0.5-0.1c-0.2,0-0.4-0.1-0.5-0.1S67.7,98.2,67.7,98.2L67.7,98.2L67.7,98.2z
			 M79.4,95.5c0,2.1-1,3.1-2.9,3.1s-2.8-1-2.8-3v-4.5h0.9v4.5c0,1.5,0.7,2.3,2,2.3s1.9-0.7,1.9-2.2v-4.6h0.9L79.4,95.5L79.4,95.5
			L79.4,95.5z M85.3,98.5h-4v-7.4h0.9v6.6h3.1V98.5z M90.4,91.8h-2.2v6.6h-0.9v-6.6h-2.2V91h5.3L90.4,91.8L90.4,91.8z M92.5,98.5
			h-0.9v-7.4h0.9V98.5z M100.7,98.5h-1.1l-3.9-5.9c-0.1-0.2-0.2-0.3-0.2-0.5h0c0,0.2,0,0.5,0,1v5.4h-0.9v-7.4h1.2l3.8,5.8
			c0.2,0.2,0.3,0.4,0.3,0.5h0c0-0.2-0.1-0.6-0.1-1.1v-5.2h0.9L100.7,98.5L100.7,98.5L100.7,98.5z M108.4,98
			c-0.8,0.4-1.6,0.6-2.6,0.6c-1.1,0-2-0.3-2.7-1c-0.7-0.7-1-1.6-1-2.7s0.4-2.1,1.1-2.8c0.8-0.7,1.7-1.1,2.8-1.1
			c0.8,0,1.5,0.1,2.1,0.4v1c-0.6-0.4-1.3-0.6-2.2-0.6s-1.6,0.3-2.1,0.9s-0.8,1.3-0.8,2.2s0.3,1.7,0.8,2.2c0.5,0.5,1.2,0.8,2.1,0.8
			c0.6,0,1.1-0.1,1.6-0.3v-2.1h-1.7v-0.8h2.6L108.4,98L108.4,98L108.4,98z"/>
		<path class="st1" d="M120,98.5h-4.1v-7.5h3.9v0.8h-3v2.5h2.8V95h-2.8v2.6h3.2L120,98.5C120,98.5,120,98.5,120,98.5z M127.7,98.5
			h-1.1l-4-6c-0.1-0.2-0.2-0.3-0.2-0.5h0c0,0.2,0,0.5,0,1v5.4h-0.9v-7.5h1.2l3.9,5.9c0.2,0.2,0.3,0.4,0.3,0.5h0
			c0-0.2-0.1-0.6-0.1-1.1v-5.3h0.9L127.7,98.5L127.7,98.5L127.7,98.5z M135.6,97.9c-0.8,0.4-1.6,0.6-2.6,0.6c-1.1,0-2-0.3-2.7-1
			s-1-1.6-1-2.8s0.4-2.1,1.1-2.9s1.7-1.1,2.9-1.1c0.9,0,1.6,0.1,2.1,0.4v1c-0.6-0.4-1.4-0.6-2.2-0.6s-1.6,0.3-2.1,0.9
			s-0.8,1.3-0.8,2.3s0.3,1.7,0.8,2.2c0.5,0.6,1.2,0.8,2.1,0.8c0.6,0,1.1-0.1,1.6-0.3v-2.1H133v-0.8h2.6L135.6,97.9L135.6,97.9
			L135.6,97.9z M138.3,98.5h-0.9v-7.5h0.9V98.5L138.3,98.5z M146.6,98.5h-1.1l-4-6c-0.1-0.2-0.2-0.3-0.2-0.5h0c0,0.2,0,0.5,0,1v5.4
			h-0.9v-7.5h1.2l3.9,5.9c0.2,0.2,0.3,0.4,0.3,0.5h0c0-0.2-0.1-0.6-0.1-1.1v-5.3h0.9L146.6,98.5L146.6,98.5L146.6,98.5z M152.8,98.5
			h-4.1v-7.5h3.9v0.8h-3v2.5h2.8V95h-2.8v2.6h3.2L152.8,98.5L152.8,98.5L152.8,98.5z M158.4,98.5h-4.1v-7.5h3.9v0.8h-3v2.5h2.8V95
			h-2.8v2.6h3.2L158.4,98.5L158.4,98.5L158.4,98.5z M165.4,98.5h-1.1l-1.3-2.1c-0.1-0.2-0.2-0.4-0.4-0.5c-0.1-0.1-0.2-0.2-0.3-0.3
			c-0.1-0.1-0.2-0.2-0.4-0.2s-0.3-0.1-0.5-0.1h-0.8v3.2h-0.9v-7.5h2.3c0.3,0,0.6,0,0.9,0.1c0.3,0.1,0.5,0.2,0.8,0.4s0.4,0.4,0.5,0.6
			s0.2,0.5,0.2,0.9c0,0.3,0,0.5-0.1,0.7s-0.2,0.4-0.4,0.6c-0.1,0.2-0.3,0.3-0.5,0.4c-0.2,0.1-0.4,0.2-0.7,0.3v0
			c0.1,0.1,0.2,0.1,0.3,0.2c0.1,0.1,0.2,0.2,0.3,0.3c0.1,0.1,0.2,0.2,0.3,0.3s0.2,0.3,0.3,0.4L165.4,98.5L165.4,98.5L165.4,98.5z
			 M160.8,91.7v2.7h1.2c0.2,0,0.4,0,0.6-0.1s0.4-0.2,0.5-0.3c0.1-0.1,0.2-0.3,0.3-0.5s0.1-0.4,0.1-0.6c0-0.4-0.1-0.7-0.4-0.9
			c-0.3-0.2-0.7-0.3-1.2-0.3L160.8,91.7L160.8,91.7L160.8,91.7z M166.1,98.2v-1c0.1,0.1,0.3,0.2,0.4,0.3s0.4,0.2,0.5,0.2
			c0.2,0.1,0.4,0.1,0.6,0.1s0.4,0.1,0.5,0.1c0.6,0,1-0.1,1.3-0.3c0.3-0.2,0.4-0.5,0.4-0.9c0-0.2-0.1-0.4-0.1-0.5s-0.2-0.3-0.4-0.4
			c-0.2-0.1-0.4-0.2-0.6-0.4c-0.2-0.1-0.5-0.2-0.7-0.4c-0.3-0.1-0.5-0.3-0.8-0.4c-0.2-0.1-0.4-0.3-0.6-0.4c-0.2-0.2-0.3-0.3-0.4-0.6
			s-0.1-0.4-0.1-0.7c0-0.3,0.1-0.6,0.2-0.9c0.2-0.2,0.4-0.5,0.6-0.6s0.5-0.3,0.9-0.4c0.3-0.1,0.6-0.1,1-0.1c0.8,0,1.3,0.1,1.7,0.3v1
			c-0.5-0.3-1.1-0.5-1.8-0.5c-0.2,0-0.4,0-0.6,0.1c-0.2,0-0.4,0.1-0.5,0.2c-0.2,0.1-0.3,0.2-0.4,0.3s-0.1,0.3-0.1,0.5
			c0,0.2,0,0.4,0.1,0.5s0.2,0.3,0.3,0.4c0.1,0.1,0.3,0.2,0.5,0.3c0.2,0.1,0.4,0.2,0.7,0.4c0.3,0.1,0.5,0.3,0.8,0.4s0.5,0.3,0.6,0.5
			c0.2,0.2,0.3,0.4,0.4,0.6c0.1,0.2,0.2,0.5,0.2,0.8c0,0.4-0.1,0.7-0.2,0.9c-0.1,0.3-0.4,0.5-0.6,0.6c-0.3,0.2-0.6,0.3-0.9,0.3
			s-0.7,0.1-1.1,0.1c-0.1,0-0.3,0-0.5,0c-0.2,0-0.4-0.1-0.6-0.1c-0.2,0-0.4-0.1-0.5-0.1C166.4,98.3,166.2,98.2,166.1,98.2
			L166.1,98.2L166.1,98.2z"/>
	</g>
</g>
</svg>
