<?xml version="1.0" encoding="UTF-8"?>
<svg id="Layer_1" data-name="Layer 1" xmlns="http://www.w3.org/2000/svg" viewBox="0 0 168.79 114.79">
  <defs>
    <style>
      .cls-1, .cls-2 {
        fill: #00a8a0;
      }

      .cls-1, .cls-2, .cls-3, .cls-4 {
        stroke-width: 0px;
      }

      .cls-1, .cls-3 {
        fill-rule: evenodd;
      }

      .cls-3, .cls-4 {
        fill: #cbbc55;
      }
    </style>
  </defs>
  <g id="Layer_1-2" data-name="Layer_1">
    <path class="cls-4" d="M4.47,104.73c0,.65-.17,1.19-.51,1.62-.37.47-.88.7-1.51.7h-.2c.24.92.37,1.92.37,3.01,0,1.27-.19,1.91-.56,1.91-.14,0-.22-.19-.26-.58,0-.24-.02-.49-.03-.73-.04-.54-.15-1.14-.32-1.79-.25-.93-.73-1.96-1.45-3.07l.84-1.43c.1.12.29.34.56.66.29.32.69.49,1.18.49.39,0,.7-.1.93-.29.13-.11.27-.29.4-.53.1-.19.2-.29.28-.29.19,0,.29.11.29.34h0ZM5.93,110.18c.71-.88,1.25-1.83,1.62-2.84.14-.38.31-1.05.52-2,.14-.65.28-.97.41-.97.16,0,.29.24.4.72.21.89.41,1.61.61,2.16.42,1.14.98,2.1,1.67,2.88l-.53,1.62c-.04.11-.07.16-.09.16-.02,0-.07-.04-.14-.12-.42-.47-.82-1.18-1.19-2.14-.31-.81-.55-1.61-.71-2.39-.13.75-.33,1.51-.61,2.28-.35.98-.75,1.74-1.19,2.27-.06.06-.09.1-.12.1-.03,0-.06-.05-.1-.16l-.56-1.57h0ZM16.88,110.38l-.47,1.62c-.65-.48-1.07-1.14-1.26-1.98-.08-.37-.12-.93-.12-1.68-.32.03-.58.04-.77.04-1.19,0-1.78-.4-1.78-1.19,0-.4.13-.9.38-1.52.35-.85.81-1.27,1.37-1.27,1.13,0,1.69.91,1.69,2.74,0,1.05.11,1.83.33,2.36.11.26.32.56.64.88h0ZM14.87,106.8c0-.24-.1-.45-.28-.62-.18-.17-.39-.26-.63-.26-.2,0-.37.06-.48.19-.09.1-.13.2-.13.31,0,.29.23.44.69.44s.74-.02.84-.06ZM22.86,106.3c0,.37-.19.74-.56,1.11-.42.43-.93.65-1.53.65-.13,0-.26-.01-.4-.04.15.82.22,1.33.22,1.54,0,.5-.02.96-.07,1.38-.09.75-.24,1.13-.46,1.13-.19,0-.3-.26-.33-.78-.06-.96-.13-1.64-.21-2.03-.24-1.21-.69-2.25-1.36-3.12.18-.33.46-.84.85-1.5.21.17.47.51.79,1.02.4-.76.94-1.15,1.62-1.15.29,0,.55.11.8.34.2.19.31.34.31.44,0,.16-.05.24-.15.24-.09,0-.24-.03-.46-.1-.22-.06-.39-.1-.51-.1-.32,0-.57.1-.74.3-.14.16-.21.34-.21.54,0,.05,0,.09.02.13.13.36.46.54.98.54.35,0,.67-.12.94-.35.24-.2.37-.3.39-.3.04,0,.06.03.06.1h0ZM29.19,109.86c0,.55-.11,1.01-.34,1.37-.27.43-.66.65-1.18.65-.42,0-.74-.2-.95-.61-.3.47-.7.71-1.18.71-.44,0-.78-.16-1.03-.47-.22-.29-.33-.65-.33-1.1,0-.49.22-1.24.66-2.26.34-.78.67-1.45,1.01-2l-.23-.26.6-1.39c.04-.08.07-.13.1-.13.03,0,.07.04.12.1.91,1.15,1.57,2.1,1.98,2.84.52.94.77,1.79.77,2.53h0ZM28.44,109.91c0-.33-.28-.9-.85-1.71-.48-.68-.91-1.22-1.3-1.62-.23.41-.47.96-.74,1.66-.29.76-.44,1.27-.44,1.53,0,.46.21.69.64.69.28,0,.47-.09.58-.26.04-.06.1-.22.17-.49.05-.17.13-.26.25-.26.15,0,.25.08.3.25.08.28.13.43.15.46.11.17.31.25.62.25.42,0,.63-.17.63-.5h0ZM34.98,106.63c-.02.16-.09.43-.19.82-.11.45-.2.69-.25.73-.09.03-.25.09-.48.17-.66.25-1.39.89-2.19,1.92-.31.4-.62.83-.9,1.29-.14.23-.26.35-.36.35-.09,0-.14-.1-.14-.3,0-.02,0-.07.01-.15.05-.5.25-1.09.61-1.78.16-.31.47-.75.92-1.32-.85-.21-1.28-.7-1.28-1.48,0-.39.22-.84.67-1.37.63-.73,1.17-1.1,1.63-1.1.27,0,.54.11.82.34.28.23.43.48.43.75,0,.15-.04.22-.12.22-.09,0-.28-.05-.56-.14-.29-.09-.51-.14-.66-.14-.38,0-.7.12-.96.35-.21.19-.32.39-.32.58,0,.27.16.49.48.66.27.15.55.22.83.22.18,0,.54-.15,1.06-.45.53-.3.82-.45.89-.45.07,0,.09.09.06.27h0ZM37.98,110.84c0,.19-.06.35-.19.47-.13.13-.29.19-.47.19s-.34-.06-.47-.19c-.13-.13-.19-.29-.19-.47s.06-.34.19-.47c.13-.13.29-.19.47-.19s.34.06.47.19c.13.13.19.28.19.47ZM37.98,107.74c0,.18-.06.34-.19.47s-.28.19-.47.19-.34-.06-.47-.19c-.13-.13-.19-.29-.19-.47s.06-.34.19-.47c.13-.13.29-.19.47-.19s.34.06.47.19c.13.13.19.28.19.47ZM47.9,111.5h-.43c-.35,0-.67-.12-.96-.37-.24-.2-.39-.42-.47-.66-.55.47-1.2.8-1.96.97-.5.11-1.14.17-1.93.17-2.09,0-3.13-.71-3.13-2.13,0-.38.09-.76.28-1.12.17-.33.31-.49.42-.49.15,0,.22.08.22.24,0,.08-.02.21-.07.39-.05.17-.07.3-.07.39,0,.52.29.88.89,1.07.39.12.98.18,1.77.18,1.48,0,2.6-.28,3.36-.84.12-.09.29-.25.5-.48.17-.18.29-.27.36-.27.13,0,.2.09.2.28,0,.08-.09.33-.28.73.12.3.44.44.97.44h.35v1.49h0ZM44.31,106.94l-.7.7-.7-.7.7-.7.7.7ZM42.73,106.94l-.7.7-.7-.7.7-.7.7.7ZM52.03,111.5h-.55c-.3,0-.58-.08-.86-.24-.28-.16-.49-.37-.64-.62-.33.57-.83.86-1.47.86h-.91v-1.49h.68c.56,0,.95-.13,1.16-.38.11-.13.2-.36.26-.7.05-.25.14-.38.28-.38s.23.13.27.38c.06.34.13.57.22.7.18.25.5.38.96.38h.59v1.49h0ZM50.31,113.32l-.78.78-.78-.79.78-.77.79.78ZM54,109.25c0,.57-.11,1.05-.33,1.45-.3.54-.76.81-1.38.81h-.55v-1.49h.64c.56,0,.83-.1.83-.31,0-.18-.22-.51-.65-.98-.05-.06-.05-.12,0-.18l.67-.94c.06-.08.12-.09.17-.03.17.18.32.45.43.78.11.31.16.61.16.89h0ZM51.89,106.11l.71-.71.7.7-.71.71-.7-.7ZM53.46,106.11l.71-.71.7.7-.71.71-.7-.7ZM52.66,104.94l.7-.7.71.7-.7.7-.71-.7ZM61.77,109.69c0,.56-.16,1-.48,1.33-.32.33-.75.49-1.31.49-.6,0-1.03-.17-1.3-.51-.18-.23-.28-.52-.28-.85,0-.43.17-.96.51-1.58.32-.58.62-.97.9-1.16.58.22,1.01.46,1.3.72.43.4.65.91.65,1.55h0ZM61.12,109.68c-.38-.44-.9-.77-1.58-.99-.26.28-.39.6-.39.96,0,.19.13.34.39.44.2.07.41.11.64.11.4,0,.7-.07.9-.22.12-.08.13-.18.04-.3ZM66.2,111.1c0,1.1-.37,2.02-1.1,2.78-.23.23-.37.35-.41.35-1.03,0-1.8-.1-2.3-.29-.11-.04-.11-.08-.01-.12.71-.25,1.38-.62,2-1.1.72-.55,1.08-1.05,1.08-1.49,0-.18-.13-.44-.39-.77-.22-.28-.43-.49-.64-.65l.56-1.18c.03-.07.08-.08.14-.02.72.71,1.07,1.55,1.07,2.5h0ZM69.71,111.5h-.68c-.38,0-.71-.13-.98-.38-.36-.34-.54-.86-.54-1.55,0-.47-.03-1.19-.08-2.14-.06-1.07-.13-1.77-.19-2.11-.02-.11-.01-.18.02-.22l.94-.77c.11-.09.18-.14.2-.14,0,0,0,0,0,0,.02,0,.03.06.03.16v4.85c0,.55.3.82.92.82h.35v1.47h0ZM74.94,111.5h-.54c-.21,0-.41-.08-.6-.23-.18-.14-.3-.32-.39-.53-.22.59-.61.88-1.16.88-.49,0-.91-.28-1.27-.83-.25.48-.61.71-1.08.71h-.5v-1.47h.5c.33,0,.54-.03.63-.09.07-.05.1-.15.08-.32-.03-.39.08-.76.35-1.1.28-.38.64-.57,1.07-.57.58,0,1.01.32,1.29.97l.36.82c.13.2.32.29.58.29h.68v1.47h0ZM72.92,109.96c0-.23-.08-.49-.24-.78-.18-.33-.38-.5-.59-.5-.26,0-.39.17-.39.52,0,.27.07.54.21.83.17.35.37.52.6.52.28,0,.41-.2.41-.6ZM81.84,109.3c0,.53-.11,1.01-.32,1.43-.27.52-.66.78-1.16.78-.48,0-.87-.26-1.18-.79-.29.53-.67.79-1.13.79-.49,0-.89-.26-1.19-.79-.31.53-.77.79-1.4.79h-.8v-1.47h.95c.34,0,.58-.12.73-.35.06-.09.13-.3.21-.64.06-.23.15-.35.28-.35.14,0,.24.11.29.34.08.36.15.58.18.64.13.23.36.34.69.34s.56-.11.7-.34c.04-.07.11-.29.21-.64.06-.23.17-.34.31-.34.13,0,.21.12.27.35.07.36.13.58.18.66.14.23.38.35.72.35.48,0,.72-.16.72-.49,0-.16-.16-.45-.49-.86l.52-.82c.07-.1.1-.16.12-.16.02.01.06.05.12.12.09.12.19.31.29.55.13.32.19.62.19.89h0ZM77.6,106.54l.71-.71.71.71-.71.71-.71-.71ZM79.17,106.53l.71-.71.71.71-.71.71-.71-.71h0ZM78.37,105.37l.71-.71.71.71-.71.71-.71-.71ZM87.04,109.56h-4.56v-.59h4.56v.59ZM98.72,108.86c0,.57-.24,1.12-.71,1.65-.59.66-1.36.99-2.32.99-.48,0-.92-.07-1.32-.21.05.24.07.47.07.7,0,.9-.33,1.57-.99,2.03-.57.39-1.32.59-2.25.59s-1.55-.24-1.98-.73c-.35-.39-.52-.89-.52-1.49,0-.3.09-.75.28-1.33.21-.68.43-1.02.65-1.02.15,0,.23.11.23.32,0,.06-.06.27-.18.61-.12.34-.18.6-.18.78,0,.54.22.93.65,1.15.31.16.78.24,1.4.24s1.13-.1,1.57-.3c.52-.23.78-.55.78-.96,0-.21-.16-.53-.48-.96-.27-.36-.52-.64-.75-.84l.54-1.11c.06-.12.12-.12.18-.01.23.38.52.69.85.94,1.18-1.54,2.19-2.31,3.03-2.31.39,0,.72.11.99.33.29.24.43.56.43.94h0ZM97.78,109.51c0-.24-.13-.43-.38-.56-.21-.11-.44-.17-.7-.17-.5,0-1.11.42-1.84,1.26.32.02.62.04.89.04.67,0,1.19-.07,1.58-.21.3-.11.45-.23.45-.35h0ZM102.24,111.5h-.68c-.38,0-.71-.13-.98-.38-.36-.34-.54-.86-.54-1.55,0-.47-.03-1.19-.08-2.14-.06-1.07-.13-1.77-.19-2.11-.02-.11-.01-.18.02-.22l.94-.77c.11-.09.18-.14.2-.14h0s.03.06.03.17v4.85c0,.55.3.82.92.82h.35v1.47h0ZM108.51,108.81l-.74,1.07c-.51,0-1.04.14-1.61.42-.29.15-.82.41-1.58.78-.6.28-1.31.42-2.14.42h-.47v-1.49h.62c.82,0,1.48-.06,1.99-.18.41-.1.88-.28,1.4-.54-.17-.06-.47-.18-.92-.35-.48-.18-.83-.28-1.04-.28s-.43.1-.67.29c-.24.19-.37.29-.39.29-.15,0-.23-.08-.23-.26,0-.12.06-.27.17-.47.42-.75.89-1.12,1.42-1.12.26,0,.87.21,1.81.64.95.42,1.65.64,2.13.64.2,0,.3.02.3.06,0,.03-.02.06-.04.08h0ZM106.37,105.45l-.78.79-.78-.79.78-.79.78.79ZM119.45,111.5h-.49c-.21,0-.52-.03-.93-.09-.41-.06-.72-.09-.93-.09-.18,0-.34.02-.49.07-.23.07-.34.17-.34.31,0,.08.17.15.49.19.2.02.4.04.6.06.43.05.74.12.91.21.22.11.33.28.33.52,0,.8-.43,1.38-1.29,1.74-.6.25-1.37.38-2.31.38-1.95,0-2.92-.71-2.92-2.14,0-.39.13-.86.38-1.41.24-.53.43-.79.57-.79.18,0,.27.08.27.24,0,.03-.05.2-.16.52-.11.31-.16.57-.16.76,0,.63.31,1.05.94,1.26.39.13,1.02.2,1.88.2.29,0,.68-.04,1.17-.13.58-.1.87-.22.87-.35,0-.06-.2-.11-.6-.14-.54-.04-.91-.09-1.11-.15-.4-.11-.6-.31-.6-.59,0-.42.2-.84.6-1.24.53-.54,1.26-.81,2.19-.81h1.13v1.49h0ZM123.39,110.29c0,.39-.12.72-.36.96-.24.25-.56.37-.95.37-.53,0-.97-.28-1.32-.83-.25.48-.61.71-1.08.71h-.5v-1.49h.5c.33,0,.54-.03.63-.09.07-.05.1-.15.08-.32-.03-.38.09-.75.35-1.09.29-.37.65-.55,1.08-.55.54,0,.95.26,1.23.78.23.42.34.93.34,1.53h0ZM122.68,109.96c0-.23-.08-.49-.24-.78-.18-.33-.38-.5-.59-.5-.26,0-.39.17-.39.52,0,.27.07.54.21.83.17.35.37.52.6.52.28,0,.41-.2.41-.6ZM126.88,111.5h-.68c-.38,0-.71-.13-.98-.38-.36-.34-.54-.86-.54-1.55,0-.47-.03-1.19-.08-2.14-.06-1.07-.13-1.77-.19-2.11-.02-.11-.01-.18.02-.22l.94-.77c.11-.09.18-.14.2-.14h0s.03.06.03.17v4.85c0,.55.3.82.92.82h.35v1.47h0ZM132.26,111.5h-.52c-.41,0-.69.02-.83.05-.27.06-.41.21-.41.42,0,.34.32.64.97.91l-.49,1.35c-.94-.27-1.68-.68-2.24-1.23-.33-.32-.55-.64-.68-.96-.03-.08-.1-.29-.23-.64-.36.06-.66.09-.92.09h-.32v-1.49h1.1c0-1.01.41-2.09,1.24-3.23.29.34.55.75.78,1.23.27.56.41,1.05.41,1.47,0,1.08-.49,1.69-1.46,1.84.23.43.63.8,1.2,1.1-.03-.6.12-1.14.45-1.62.37-.52.84-.78,1.42-.78h.52v1.49h0ZM129.43,109.84c0-.18-.09-.43-.26-.75-.14-.25-.26-.45-.38-.58-.3.42-.45.92-.45,1.47.25,0,.62-.05,1.09-.14h0ZM139.15,109.3c0,.53-.11,1.01-.32,1.43-.27.52-.66.78-1.16.78-.48,0-.87-.26-1.18-.79-.29.53-.67.79-1.13.79-.49,0-.89-.26-1.19-.79-.31.53-.77.79-1.4.79h-.8v-1.47h.95c.34,0,.58-.12.73-.35.06-.09.13-.3.21-.64.06-.23.15-.35.28-.35.14,0,.24.11.29.34.08.36.15.58.18.64.13.23.36.34.69.34s.56-.11.7-.34c.04-.07.11-.29.21-.64.06-.23.17-.34.31-.34.13,0,.21.12.27.35.07.36.13.58.18.66.14.23.38.35.72.35.48,0,.72-.16.72-.49,0-.16-.16-.45-.49-.86l.52-.82c.07-.1.1-.16.12-.16.02.01.06.05.12.12.09.12.19.31.29.55.13.32.19.62.19.9h0ZM151.59,111.5h-.43c-.35,0-.67-.12-.96-.37-.24-.2-.39-.42-.47-.66-.55.47-1.2.8-1.96.97-.5.11-1.14.17-1.93.17-2.09,0-3.13-.71-3.13-2.13,0-.38.09-.76.28-1.12.17-.33.31-.49.42-.49.15,0,.22.08.22.24,0,.08-.02.21-.07.39-.05.17-.07.3-.07.39,0,.52.29.88.89,1.07.39.12.98.18,1.77.18,1.48,0,2.6-.28,3.36-.84.12-.09.29-.25.5-.48.17-.18.29-.27.36-.27.13,0,.2.09.2.28,0,.08-.09.33-.28.73.12.3.44.44.97.44h.35v1.49h0ZM148,106.94l-.7.7-.7-.7.7-.7.7.7ZM146.42,106.94l-.7.7-.7-.7.7-.7.7.7ZM156.2,104.35l-.24,1.31c-.61.2-1.63.55-3.05,1.05.48.48.82.87,1.03,1.2.3.45.44.91.44,1.36,0,1.49-.81,2.23-2.43,2.23h-.66v-1.49h.44c.81,0,1.36-.04,1.64-.11.22-.06.33-.16.33-.32,0-.25-.24-.63-.71-1.15-.43-.48-.84-.83-1.2-1.06l.28-1.49c.87-.35,2.25-.86,4.12-1.54h0ZM161.41,111.5h-.25c-.37,0-.66-.05-.86-.16,0,1.17-.35,2.1-1.06,2.78-.22.21-.35.31-.41.31-1.03,0-1.79-.1-2.3-.29-.1-.04-.1-.07-.01-.11.69-.26,1.37-.63,2.02-1.13.73-.55,1.09-1.02,1.09-1.42,0-.19-.13-.44-.4-.77-.19-.24-.41-.46-.65-.66l.6-1.22c.04-.07.08-.07.13,0,.58.79,1.11,1.18,1.59,1.18h.5v1.49h0ZM168.31,109.3c0,.53-.11,1.01-.32,1.43-.27.52-.66.78-1.16.78-.48,0-.87-.26-1.18-.79-.29.53-.67.79-1.13.79-.49,0-.89-.26-1.19-.79-.31.53-.77.79-1.4.79h-.8v-1.47h.95c.34,0,.58-.12.73-.35.06-.09.13-.3.21-.64.06-.23.15-.35.28-.35.14,0,.24.11.29.34.08.36.15.58.18.64.13.23.36.34.69.34s.56-.11.7-.34c.04-.07.11-.29.21-.64.06-.23.17-.34.31-.34.13,0,.21.12.27.35.07.36.13.58.18.66.14.23.38.35.72.35.48,0,.72-.16.72-.49,0-.16-.16-.45-.49-.86l.52-.82c.07-.1.1-.16.12-.16.02.01.06.05.12.12.09.12.19.31.29.55.13.32.19.62.19.89h0ZM164.07,106.54l.71-.71.71.71-.71.71-.71-.71ZM165.64,106.53l.71-.71.71.71-.71.71-.71-.71h0ZM164.84,105.37l.71-.71.71.71-.71.71-.71-.71Z"/>
    <g id="_2772388733168" data-name=" 2772388733168">
      <path class="cls-1" d="M74.35,18.12c.16,1.53.89,2.95,2.05,3.96h-19.09c.32-1.35.75-2.68,1.28-3.96h15.76ZM74.84,16.64c1.18-1.02,1.92-2.44,2.07-3.99h10.28c.15,1.54.89,2.97,2.06,3.99h-14.41,0ZM57.61,16.64c-1,2.21-1.71,4.53-2.11,6.92h4.38c.16,1.56.91,3,2.11,4.02h-6.88c-.05,1.83.08,3.66.39,5.47h-24.25v1.45h30.35c.16,1.56.91,3,2.11,4.02h-6.7c.74,1.92,1.69,3.75,2.83,5.47h-22.63v1.45h34.72c.31,3.11,2.92,5.47,6.04,5.47h19.96c-9.61,6.18-22.09,5.59-31.08-1.45H17.19v1.45h49.17c6.23,4.7,14.13,6.61,21.82,5.3,7.69-1.32,14.48-5.71,18.8-12.21h-4.2c1.2-1.02,1.95-2.46,2.11-4.02h4.32c1-2.21,1.71-4.53,2.11-6.92h-7.16c1.13-1.1,1.93-2.49,2.31-4.02h5.23c.06-2.32-.17-4.65-.68-6.92h-5.77c-1.13-1.67-2.81-2.88-4.74-3.44-.14-.04-.24-.17-.22-.32.02-.15.16-.26.31-.27h9.21c-.74-1.92-1.69-3.75-2.83-5.47h19.94v-1.45h-39.16c1.2-1.02,1.95-2.46,2.11-4.02h58.96v-1.45h-48.37c-6.23-4.7-14.13-6.61-21.82-5.3-7.69,1.32-14.48,5.71-18.8,12.21h4.99c.16,1.56.91,3,2.11,4.02h-9.32,0ZM71.99,23.59h18.24c-.53,1.25-.75,2.61-.65,3.96h-19.64c1.16-1.01,1.89-2.43,2.05-3.96h0ZM73.7,34.53h20.43c2.52,1.34,5.54,1.34,8.07,0h7.32c-.32,1.35-.75,2.68-1.28,3.96h-36.59c1.16-1.01,1.89-2.43,2.05-3.96h0ZM77.76,40c.16,1.53.89,2.95,2.05,3.96h-18.2c-.9-1.25-1.69-2.58-2.36-3.96h18.5,0ZM81.99,49.43c1.16-1.01,1.89-2.43,2.05-3.96h20c-1.22,1.46-2.58,2.79-4.08,3.96h-17.97ZM84.43,22.08c1.16-1.01,1.89-2.43,2.05-3.96h9.03c.15,0,.27.1.3.24.03.14-.07.29-.21.34-1.86.58-3.47,1.77-4.56,3.38h-6.61ZM97.27,16.61c1.16-1.01,1.89-2.43,2.05-3.96h5.88c.9,1.25,1.69,2.58,2.36,3.96h-10.29ZM79.81,11.14h-17.03C71.41.76,86.44-1.58,97.83,5.67h-20.04c-.3,2.05.46,4.11,2.02,5.47ZM75.01,29.06c.16,1.53.89,2.95,2.05,3.96h-20.07c-.23-1.31-.37-2.63-.41-3.96h18.42ZM87.14,29.06h2.68c.38,1.5,1.17,2.87,2.26,3.96h-7c1.16-1.01,1.89-2.43,2.05-3.96h0ZM89.89,40h2.88c.16,1.53.89,2.95,2.05,3.96h-6.99c1.16-1.01,1.89-2.43,2.05-3.96h0ZM106.1,23.59h3.73c.23,1.31.37,2.63.41,3.96h-3.49c.1-1.35-.12-2.71-.65-3.96Z"/>
      <path class="cls-1" d="M29.15,82.26c0,.39,2.55,1.48,3,1.71.33-1.4,1.07-1.43,1.07-3.21-3.01-1.59-2.57-1.75-3.35-.14-.2.41-.71,1.26-.71,1.64h0Z"/>
      <path class="cls-1" d="M105.09,82.47l2.99,1.5c.17-.73.33-.89.69-1.46.35-.55.44-.87.6-1.54-.86-.58-1.69-1.39-3-1.5-.27,1.17-1.01,1.83-1.28,3h0Z"/>
      <path class="cls-1" d="M109.37,82.47l3,1.5c.91-1.71,1.29-1.73,1.29-3.21l-2.74-1.36-1.54,3.07h0Z"/>
      <path class="cls-1" d="M33.85,82.47l2.99,1.5c.6-1.13,1.29-2.19,1.29-3.21-.72-.38-2.1-1.21-2.99-1.28-.27,1.17-1.01,1.83-1.28,3h0Z"/>
      <path class="cls-1" d="M66.37,68.35c1.53.36,1.91,1.25,3.21,1.28.33-1.4,1.07-1.43,1.07-3.21-.72-.38-2.1-1.21-3-1.28-.28,1.21-1.18,1.95-1.28,3.21h0Z"/>
      <path class="cls-1" d="M138.25,65.14c-.28,1.21-1.18,1.95-1.28,3.21.63.15.99.38,1.5.64.61.32.77.62,1.71.64.33-1.4,1.07-1.43,1.07-3.21-.72-.38-2.1-1.21-3-1.28h0Z"/>
      <path class="cls-1" d="M75.57,68.35c.88.2,2.45,1.28,2.99,1.28.31,0,1.5-2.33,1.5-2.78,0-.41-2.24-1.71-2.78-1.71-.34,0-1.67,2.68-1.71,3.21h0Z"/>
      <path class="cls-1" d="M95.25,68.35c.59.68,2.45,1.28,3,1.28.31,0,1.5-2.33,1.5-2.78,0-.33-2.56-1.71-2.57-1.71-.62,0-.59.37-1.2,1.37-.35.58-1.21,1.27-.73,1.84Z"/>
      <path class="cls-1" d="M70.86,68.35c.88.2,2.45,1.28,2.99,1.28.18,0,1.5-1.85,1.5-3.21-.41-.22-2.41-1.28-2.78-1.28s-1.59,2.68-1.71,3.21Z"/>
      <path class="cls-3" d="M40.27,78.83c1-.27,1.14-1.76,1.42-3.29.62-3.48.08-1.48.08-4.2v-7.06h-2.57l1.07,14.55h0Z"/>
      <path class="cls-3" d="M5.19,71.35c1.38.37,5.13,3.88,5.13,6.42v.43c-.68.46-1.01.72-2.05.95-1.49.33-4.67.61-6.16-.01-.79-.33-.78-.57-.78-1.58h-.43c-.41,1.76-.64,1.32-.64,3.64,0,2.58,8.94,2.69,10.7-.21,3.72-6.13-3.45-13.36-4.71-13.69-.26.55-1.05,3.31-1.07,4.06h0Z"/>
      <path class="cls-3" d="M50.33,73.91h-.43c-.02-.9-.38-1.8-.71-2.5-.22-.47-.23-.57-.44-1.06-.33-.76-.36-.39-.56-1.15h-.64c-.68,2.91-2.46,2.58-.8,4.22.51.51.37.35.73.98,1.75,3.02.12,5.65-2.46,7.68-2.68,2.11-4.59,2.04-5.39,2.74h7.27c.17-.64,1.26-1.82,1.9-3.45.48-1.23,1.19-2.76,1.31-4.25l.58.7c.25.27.39.43.69.59,1.57.83,4.15.25,5.57-.44,0,2.09-.85,2.98-1.79,4.2-.38.49-.39.35-.82.68l-2.53,1.97h4.71c.46-1.7,4.24-5.72,1.26-13.45-1.06-2.75-3.81-4.37-5.97-.67-.46.79-1.4,2.12-1.49,3.21h0ZM51.82,74.13c0-3.29,3.89-1.96,4.49.64-2.69,1.43-4.49.58-4.49-.64Z"/>
      <path class="cls-3" d="M24.23,70.28c0,2.06-.19,4.28-2.57,4.28-.77,0-.64-4.17-3.28-5.7-3.42-1.98-5.91,5.7-5.91,6.56,0,4.13,4.34,3.87,7.06,2.57,0,1.73-.19,2.15-1.13,3.37-.28.36-.37.54-.64.86-1.09,1.3-2.91,1.99-3.37,2.62h4.71c.24-.44.53-.92.76-1.38.77-1.53,1.45-3.54,1.59-5.25.94,0,1.28-.08,1.89-.46.58-.36.91-.76,1.1-1.46.68.5,1.01,1.93,3.21,1.93s6.33.3,7.7-.43c2.92-1.55,2.55-5.51,1.69-8.1-.19-.57-.37-.94-.65-1.49-.54-1.1-.52-.96-1.04-1.1l-1.5,2.99c1.14.76,1.74,2.38,2.14,3.21-.38.72-.61,1.28-1.71,1.28-2.43,0-6.78.5-7.48-.87-.43-.85-.44-7.99-.44-9.4h-2.14v5.99h0ZM14.39,74.13c0-1.28.33-1.14.86-1.93,1.65,0,3.44.4,3.64,2.78-.57.13-1.85.62-2.36.62-.95,0-1.57-.67-2.14-1.05v-.43h0Z"/>
      <path class="cls-3" d="M59.74,72.84c0,7.13,2.26,6.2,8.34,6.2,2.48,0,2.1-1.33,3.21-2.14.6,2.25,3.62,2.73,5.29,1.44.62-.48,1.12-.62,1.34-1.44h.43c.55,2.38,2.29,2.14,4.28,2.14,1.37,0,2.11-.39,3-.86,0,3.39.34,3.85,2.09,5.62.71.72,1.3,1.11,2.33,1.52,5.18,2.02,13.76-.77,15.05-6.28,2.25,0,2.73.18,4.28-.64v.64c2.09,0,4.98.38,5.56-2.14,1.59,1.07.98,2.14,3.64,2.14,1.96,0,2.47-1.36,3.64-2.14.51.97.92,1.86,2.14,2.14l-.21,2.57c0,2.5,6.23,2.02,7.89,1.47,2.59-.84.89-.41,2.38-.41,3.1,0,3.84.44,6.42-1.28v1.28c5.45,0,5.87-2,7.68-1.92,2.66.12,7.45,2.98,9.92.69.79-.73.64-.8,1.65-1.34,1.94,1.03,3.46,2.35,6.2,2.35,4.01,0,2.92-10.48-1.07-10.48-1.11,0-1.98.39-2.7,1.37-1.18,1.62-2.31,3.24-3.87,4.47-.53.41-.36.4-1.13.58,0-2.79-2.03-5.33-4.02-6.89-.35-.27-.35-.21-.74-.55l-2.3-1.76c-3.64-2.24-3.69-2.35-5.05-.13-.41.67-.71,1.12-.73,2.06h.64c-.47,1.75-2.73,2.52-1.26,5.97.24.57.7,1.01,1.05,1.52-.87.2-2.16.43-3.21.43.88-3.78-.96-5.19-1.5-7.49-1.01.08-.78.25-1.21,1.14-.91,1.87-.82,1.48.32,3.18,2.41,3.6-1.19,3.17-3.81,3.17.99-4.25-1.74-7.77-4.44-10.54-.56-.58-.44-.73-1.34-.8-.12,1.48-.86,2.54-.86,4.06.83.22,1.07.64,1.67,1.11,1.71,1.34,3.46,3.35,3.46,5.74-.81.54-1.22.76-2.43.99-1.89.36-4.65.54-6.34-.35.53-.72,1.39-1.14,1.89-1.96,1.04-1.72,1.07-4.34.32-6.24-.21-.54-.33-.72-.58-1.35-.29-.71-.31-.75-.99-.93l-1.28,2.78c.71,1.06,1.92,1.97,1.92,3.64-1.21.58-2.02.42-2.95-.69-.53-.63-.57-1.18-.91-1.88-.92.25-1.03,1.1-1.65,1.77-2.1,2.3-4.58.85-5.19-1.77h-.64c-.52,2.24-2.02,2.78-4.28,2.78.37-1.6.08-3.48-.45-4.9-.31-.84-.83-2.36-1.69-2.59-.18.78-.36.78-.72,1.42-.32.57-.51,1.05-.78,1.57,1.2,1.79.64.08,2.14,3.21-.95,1.8-2.41,1.28-4.28,1.28,0-3.29-1.38-4.28-1.93-6.63h-.43c-.7,2.98-2.56,1.63-.6,4.66,1.56,2.41,2.18,5.28-.47,7.11-.67.46-1.16.55-1.96.82-5.07,1.69-12.38.87-12.38-4.25,1.61,1.08,5,3.31,6.91,1.56,2.25-2.07,1.52-6.58-.18-8.71-.42-.53-.03-.09-.55-.52-3.92-3.3-5.69,5.42-9.59,5.74,0-1.38-.03-3-.51-4.2-.19-.46-.39-.76-.56-1.15-.37-.83.03-.58-.64-1.07-.47.34-1.5,2.15-1.5,2.78,0,.29,1.93,2.15,1.93,3.21,0,1.41-3.59,1.03-3.85-2.14-1.08.09-1.19,1.1-1.87,1.77-1.75,1.75-3.86,1.51-4.83-.85-.39-.93.15-.39-.58-.92-2.4,1.76,1.23,2.78-7.7,2.78-2.14,0-1.97-2.3-2.14-4.7-.15-2.1,0-4.31,0-6.42h-2.14v8.56h0ZM151.94,74.77c1.18.63,2.87,2.27,3.5,3.57.76,1.57-.29,1.09-1.45.8l-2.91-.73c.12-1.47.86-1.32.86-3.64ZM164.35,75.2c.43,0,.74.26,1.02.48l.78.72c1.21,1.38,2.37,5.29-3.37,2.09-.57-.31-.52-.4-.99-.72.43-.82,1.42-2.57,2.57-2.57ZM145.52,74.56c0-1.54,1.37-1.71,2.57-1.71,1.01,0,2.05.34,2.14,1.07.55,4.54-4.71,3.08-4.71.64h0ZM88.83,74.34c.42-.63,1.45-2.35,2.35-2.35,1.54,0,3,1.92,3,4.06l-.85.44c-1.7-.15-3.76-1.05-4.5-2.15h0Z"/>
      <path class="cls-4" d="M4.31,97.13H.27v-7.32h3.87v.77H1.16v2.43h2.75v.77H1.16v2.56h3.15v.77h0ZM8.44,94.55h-2.9v-.66h2.9v.66ZM14.08,97.13h-3.95v-7.32h.89v6.54h3.06v.77h0ZM17.95,97.25c-1.08,0-1.95-.34-2.6-1.03-.65-.68-.98-1.57-.98-2.67,0-1.18.33-2.12.99-2.82.66-.7,1.57-1.05,2.71-1.05,1.05,0,1.9.34,2.54,1.02.64.68.97,1.57.97,2.67,0,1.19-.33,2.14-.99,2.83-.66.69-1.54,1.04-2.65,1.04h0ZM18.01,90.46c-.8,0-1.45.28-1.95.83-.5.56-.75,1.28-.75,2.18s.24,1.63.73,2.18c.49.55,1.12.82,1.91.82.84,0,1.5-.26,1.98-.79.48-.52.72-1.26.72-2.2s-.23-1.71-.7-2.24c-.47-.53-1.11-.79-1.94-.79h0ZM26.16,97.25c-1.08,0-1.95-.34-2.6-1.03-.65-.68-.98-1.57-.98-2.67,0-1.18.33-2.12.99-2.82.66-.7,1.57-1.05,2.71-1.05,1.05,0,1.9.34,2.54,1.02.64.68.97,1.57.97,2.67,0,1.19-.33,2.14-.99,2.83-.66.69-1.54,1.04-2.65,1.04h0ZM26.22,90.46c-.8,0-1.45.28-1.95.83-.5.56-.75,1.28-.75,2.18s.24,1.63.73,2.18c.49.55,1.12.82,1.91.82.84,0,1.5-.26,1.98-.79.48-.52.72-1.26.72-2.2s-.23-1.71-.7-2.24c-.47-.53-1.11-.79-1.94-.79h0ZM31.29,97.13v-7.32h2.1c2.69,0,4.03,1.19,4.03,3.57,0,1.13-.37,2.04-1.12,2.72-.75.68-1.74,1.03-3,1.03h-2.02,0ZM32.18,90.59v5.77h1.14c1,0,1.78-.26,2.33-.77.56-.51.83-1.24.83-2.18,0-1.87-1.04-2.81-3.12-2.81h-1.19,0Z"/>
      <path class="cls-4" d="M49.76,96.82c-.56.29-1.25.43-2.09.43-1.07,0-1.93-.33-2.58-1-.65-.67-.97-1.55-.97-2.64,0-1.17.36-2.11,1.09-2.83.73-.72,1.65-1.08,2.76-1.08.72,0,1.31.1,1.78.3v.91c-.54-.29-1.14-.44-1.79-.44-.87,0-1.57.28-2.11.84-.54.56-.81,1.31-.81,2.25s.25,1.6.75,2.13c.51.53,1.16.79,1.98.79.76,0,1.41-.16,1.97-.49v.83h0ZM54.2,97.25c-1.07,0-1.93-.34-2.57-1.03-.64-.68-.97-1.57-.97-2.67,0-1.18.33-2.12.99-2.82.66-.7,1.55-1.05,2.68-1.05,1.04,0,1.88.34,2.52,1.02.64.68.96,1.57.96,2.67,0,1.19-.33,2.14-.98,2.83-.65.69-1.53,1.04-2.62,1.04h0ZM54.26,90.46c-.79,0-1.44.28-1.93.83-.49.56-.74,1.28-.74,2.18s.24,1.63.72,2.18c.48.55,1.11.82,1.89.82.83,0,1.48-.26,1.96-.79.48-.52.72-1.26.72-2.2s-.23-1.71-.69-2.24c-.46-.53-1.1-.79-1.92-.79h0ZM65.37,97.13h-1.09l-3.89-5.83c-.1-.15-.18-.3-.24-.46h-.03c.03.16.04.49.04,1v5.29h-.88v-7.32h1.15l3.78,5.74c.16.24.26.4.31.49h.02c-.04-.21-.05-.57-.05-1.08v-5.15h.89v7.32h0ZM67,96.83v-1.01c.12.1.26.19.43.28.17.08.34.15.53.21.19.06.37.1.56.13.19.03.36.05.52.05.54,0,.95-.1,1.22-.29.27-.2.4-.48.4-.84,0-.2-.04-.37-.13-.52-.09-.15-.21-.28-.37-.4-.16-.12-.35-.24-.56-.35-.22-.11-.45-.23-.7-.35-.26-.13-.51-.26-.74-.39-.23-.13-.43-.28-.59-.44-.17-.16-.3-.34-.4-.54-.1-.2-.15-.44-.15-.71,0-.33.08-.62.23-.87.15-.25.35-.45.59-.61.25-.16.53-.28.84-.36.31-.08.63-.12.96-.12.74,0,1.29.09,1.63.26v.96c-.45-.3-1.02-.45-1.72-.45-.19,0-.39.02-.58.06-.19.04-.36.1-.52.19-.15.09-.27.2-.37.34-.1.14-.14.31-.14.51,0,.19.04.35.11.48.07.14.18.26.32.37.14.11.31.22.51.33.2.11.43.22.7.35.27.13.53.27.77.41.24.14.45.3.64.47.18.17.33.37.43.58.11.21.16.45.16.72,0,.36-.07.67-.22.92-.15.25-.34.45-.59.61-.25.16-.53.27-.86.34-.32.07-.66.1-1.02.1-.12,0-.27,0-.44-.03-.17-.02-.35-.05-.54-.08-.18-.03-.35-.08-.52-.13s-.29-.11-.39-.18h0ZM78.6,94.17c0,2.05-.96,3.08-2.87,3.08s-2.75-.99-2.75-2.96v-4.47h.88v4.42c0,1.5.65,2.25,1.96,2.25s1.89-.72,1.89-2.17v-4.49h.88v4.36h0ZM84.41,97.13h-3.92v-7.32h.88v6.54h3.03v.77ZM89.44,90.59h-2.18v6.54h-.88v-6.54h-2.17v-.77h5.24v.77ZM91.51,97.13h-.88v-7.32h.88v7.32ZM99.58,97.13h-1.09l-3.89-5.83c-.1-.15-.18-.3-.24-.46h-.03c.03.16.04.49.04,1v5.29h-.88v-7.32h1.15l3.78,5.74c.16.24.26.4.31.49h.02c-.04-.21-.05-.57-.05-1.08v-5.15h.89v7.32h0ZM107.2,96.63c-.76.41-1.6.62-2.53.62-1.08,0-1.95-.34-2.61-1.01-.67-.67-1-1.56-1-2.67s.37-2.06,1.11-2.79c.74-.73,1.68-1.09,2.81-1.09.82,0,1.51.13,2.07.39v.95c-.61-.37-1.33-.56-2.17-.56s-1.54.28-2.08.85c-.54.56-.81,1.3-.81,2.19s.25,1.65.75,2.18c.5.53,1.18.79,2.04.79.59,0,1.1-.11,1.53-.34v-2.05h-1.65v-.77h2.54v3.32h0Z"/>
      <path class="cls-4" d="M118.61,97.12h-4.06v-7.43h3.89v.79h-2.99v2.47h2.77v.78h-2.77v2.6h3.16v.79h0ZM126.27,97.12h-1.1l-3.94-5.93c-.1-.15-.18-.3-.25-.47h-.03c.03.16.04.5.04,1.02v5.37h-.9v-7.43h1.17l3.84,5.83c.16.24.26.41.31.5h.02c-.04-.21-.05-.58-.05-1.09v-5.24h.9v7.43h0ZM134,96.62c-.77.42-1.62.63-2.57.63-1.09,0-1.98-.34-2.65-1.03-.68-.68-1.01-1.59-1.01-2.72s.38-2.1,1.13-2.83c.75-.74,1.7-1.11,2.85-1.11.83,0,1.53.13,2.1.39v.96c-.62-.38-1.35-.57-2.2-.57s-1.56.29-2.11.86c-.55.57-.82,1.32-.82,2.23s.26,1.68.76,2.22c.51.54,1.2.81,2.07.81.6,0,1.12-.12,1.55-.35v-2.08h-1.68v-.79h2.58v3.37h0ZM136.68,97.12h-.9v-7.43h.9v7.43h0ZM144.88,97.12h-1.1l-3.94-5.93c-.1-.15-.18-.3-.25-.47h-.03c.03.16.04.5.04,1.02v5.37h-.9v-7.43h1.17l3.84,5.83c.16.24.26.41.31.5h.02c-.04-.21-.05-.58-.05-1.09v-5.24h.9v7.43h0ZM150.95,97.12h-4.06v-7.43h3.89v.79h-2.99v2.47h2.77v.78h-2.77v2.6h3.16v.79h0ZM156.48,97.12h-4.06v-7.43h3.89v.79h-2.99v2.47h2.77v.78h-2.77v2.6h3.16v.79h0ZM163.45,97.12h-1.07l-1.28-2.08c-.12-.19-.23-.36-.34-.5-.11-.14-.22-.25-.34-.33-.12-.09-.24-.15-.37-.19-.13-.04-.28-.06-.45-.06h-.74v3.16h-.9v-7.43h2.29c.33,0,.64.04.93.12.28.08.53.2.74.37.21.17.37.37.49.62.12.25.18.54.18.87,0,.26-.04.5-.12.71-.08.22-.19.41-.34.58-.15.17-.33.32-.53.43-.21.12-.44.21-.7.28v.02c.13.06.24.12.34.19.09.07.18.16.27.25.09.1.17.21.26.33.08.12.18.26.28.43l1.44,2.24h0ZM158.86,90.48v2.7h1.22c.22,0,.43-.03.62-.1.19-.07.36-.16.49-.28.14-.12.25-.27.33-.45.08-.18.12-.38.12-.6,0-.4-.13-.71-.4-.93-.26-.22-.65-.33-1.15-.33h-1.23,0ZM164.15,96.82v-1.03c.12.1.27.2.44.28.17.08.35.15.53.21.19.06.38.1.56.13.19.03.36.05.52.05.55,0,.97-.1,1.24-.3.27-.2.41-.48.41-.86,0-.2-.05-.38-.14-.52-.09-.15-.22-.28-.38-.41-.16-.12-.35-.24-.57-.35-.22-.11-.46-.23-.71-.35-.27-.13-.52-.27-.75-.4-.23-.13-.43-.28-.6-.45-.17-.16-.3-.35-.4-.55-.1-.21-.15-.45-.15-.72,0-.34.08-.63.23-.88.15-.25.36-.46.6-.62.25-.16.53-.28.85-.36.32-.08.64-.12.97-.12.76,0,1.31.09,1.65.27v.98c-.45-.3-1.03-.46-1.74-.46-.2,0-.39.02-.59.06-.2.04-.37.11-.52.19-.15.09-.28.21-.37.35-.1.14-.14.31-.14.52,0,.19.04.35.11.49.07.14.18.26.32.38.14.11.32.22.52.33.2.11.44.22.71.35.28.13.53.27.78.42.25.15.46.31.65.48.19.18.33.37.44.59.11.21.16.46.16.74,0,.37-.07.68-.22.93-.15.25-.35.46-.6.62-.25.16-.54.27-.87.35-.33.07-.67.11-1.04.11-.12,0-.27,0-.45-.03-.18-.02-.36-.05-.55-.08-.18-.04-.36-.08-.53-.13-.17-.05-.3-.11-.4-.18h0Z"/>
    </g>
    <rect class="cls-2" x="0" y="100.67" width="168.31" height="1.26"/>
  </g>
</svg>