<?xml version="1.0" encoding="UTF-8"?>
<svg id="Layer_1" data-name="Layer 1" xmlns="http://www.w3.org/2000/svg" viewBox="0 0 168.53 97.25">
  <defs>
    <style>
      .cls-1 {
        fill: #00a8a0;
      }

      .cls-1, .cls-2 {
        fill-rule: evenodd;
      }

      .cls-1, .cls-2, .cls-3 {
        stroke-width: 0px;
      }

      .cls-2, .cls-3 {
        fill: #cbbc55;
      }
    </style>
  </defs>
  <g id="Layer_1-2" data-name="Layer_1">
    <g id="_2772388733168" data-name=" 2772388733168">
      <path class="cls-1" d="M74.08,18.12c.16,1.53.89,2.95,2.05,3.96h-19.09c.32-1.35.75-2.68,1.28-3.96h15.76ZM74.57,16.64c1.18-1.02,1.92-2.44,2.07-3.99h10.28c.15,1.54.89,2.97,2.06,3.99h-14.41,0ZM57.34,16.64c-1,2.21-1.71,4.53-2.11,6.92h4.38c.16,1.56.91,3,2.11,4.02h-6.88c-.05,1.83.08,3.66.39,5.47h-24.25v1.45h30.35c.16,1.56.91,3,2.11,4.02h-6.7c.74,1.92,1.69,3.75,2.83,5.47h-22.63v1.45h34.72c.31,3.11,2.92,5.47,6.04,5.47h19.96c-9.61,6.18-22.09,5.59-31.08-1.45H16.92v1.45h49.17c6.23,4.7,14.13,6.61,21.82,5.3,7.69-1.32,14.48-5.71,18.8-12.21h-4.2c1.2-1.02,1.95-2.46,2.11-4.02h4.32c1-2.21,1.71-4.53,2.11-6.92h-7.16c1.13-1.1,1.93-2.49,2.31-4.02h5.23c.06-2.32-.17-4.65-.68-6.92h-5.77c-1.13-1.67-2.81-2.88-4.74-3.44-.14-.04-.24-.17-.22-.32.02-.15.16-.26.31-.27h9.21c-.74-1.92-1.69-3.75-2.83-5.47h19.94v-1.45h-39.16c1.2-1.02,1.95-2.46,2.11-4.02h58.96v-1.45h-48.37c-6.23-4.7-14.13-6.61-21.82-5.3-7.69,1.32-14.48,5.71-18.8,12.21h4.99c.16,1.56.91,3,2.11,4.02h-9.32,0ZM71.72,23.59h18.24c-.53,1.25-.75,2.61-.65,3.96h-19.64c1.16-1.01,1.89-2.43,2.05-3.96h0ZM73.44,34.53h20.43c2.52,1.34,5.54,1.34,8.07,0h7.32c-.32,1.35-.75,2.68-1.28,3.96h-36.59c1.16-1.01,1.89-2.43,2.05-3.96h0ZM77.49,40c.16,1.53.89,2.95,2.05,3.96h-18.2c-.9-1.25-1.69-2.58-2.36-3.96h18.5,0ZM81.72,49.43c1.16-1.01,1.89-2.43,2.05-3.96h20c-1.22,1.46-2.58,2.79-4.08,3.96h-17.97ZM84.16,22.08c1.16-1.01,1.89-2.43,2.05-3.96h9.03c.15,0,.27.1.3.24.03.14-.07.29-.21.34-1.86.58-3.47,1.77-4.56,3.38h-6.61ZM97.01,16.61c1.16-1.01,1.89-2.43,2.05-3.96h5.88c.9,1.25,1.69,2.58,2.36,3.96h-10.29ZM79.54,11.14h-17.03C71.14.76,86.17-1.58,97.56,5.67h-20.04c-.3,2.05.46,4.11,2.02,5.47ZM74.74,29.06c.16,1.53.89,2.95,2.05,3.96h-20.07c-.23-1.31-.37-2.63-.41-3.96h18.42ZM86.88,29.06h2.68c.38,1.5,1.17,2.87,2.26,3.96h-7c1.16-1.01,1.89-2.43,2.05-3.96h0ZM89.63,40h2.88c.16,1.53.89,2.95,2.05,3.96h-6.99c1.16-1.01,1.89-2.43,2.05-3.96h0ZM105.83,23.59h3.73c.23,1.31.37,2.63.41,3.96h-3.49c.1-1.35-.12-2.71-.65-3.96Z"/>
      <path class="cls-1" d="M28.88,82.26c0,.39,2.55,1.48,3,1.71.33-1.4,1.07-1.43,1.07-3.21-3.01-1.59-2.57-1.75-3.35-.14-.2.41-.71,1.26-.71,1.64h0Z"/>
      <path class="cls-1" d="M104.82,82.47l2.99,1.5c.17-.73.33-.89.69-1.46.35-.55.44-.87.6-1.54-.86-.58-1.69-1.39-3-1.5-.27,1.17-1.01,1.83-1.28,3h0Z"/>
      <path class="cls-1" d="M109.1,82.47l3,1.5c.91-1.71,1.29-1.73,1.29-3.21l-2.74-1.36-1.54,3.07h0Z"/>
      <path class="cls-1" d="M33.59,82.47l2.99,1.5c.6-1.13,1.29-2.19,1.29-3.21-.72-.38-2.1-1.21-2.99-1.28-.27,1.17-1.01,1.83-1.28,3h0Z"/>
      <path class="cls-1" d="M66.1,68.35c1.53.36,1.91,1.25,3.21,1.28.33-1.4,1.07-1.43,1.07-3.21-.72-.38-2.1-1.21-3-1.28-.28,1.21-1.18,1.95-1.28,3.21h0Z"/>
      <path class="cls-1" d="M137.98,65.14c-.28,1.21-1.18,1.95-1.28,3.21.63.15.99.38,1.5.64.61.32.77.62,1.71.64.33-1.4,1.07-1.43,1.07-3.21-.72-.38-2.1-1.21-3-1.28h0Z"/>
      <path class="cls-1" d="M75.3,68.35c.88.2,2.45,1.28,2.99,1.28.31,0,1.5-2.33,1.5-2.78,0-.41-2.24-1.71-2.78-1.71-.34,0-1.67,2.68-1.71,3.21h0Z"/>
      <path class="cls-1" d="M94.98,68.35c.59.68,2.45,1.28,3,1.28.31,0,1.5-2.33,1.5-2.78,0-.33-2.56-1.71-2.57-1.71-.62,0-.59.37-1.2,1.37-.35.58-1.21,1.27-.73,1.84Z"/>
      <path class="cls-1" d="M70.6,68.35c.88.2,2.45,1.28,2.99,1.28.18,0,1.5-1.85,1.5-3.21-.41-.22-2.41-1.28-2.78-1.28s-1.59,2.68-1.71,3.21Z"/>
      <path class="cls-2" d="M40,78.83c1-.27,1.14-1.76,1.42-3.29.62-3.48.08-1.48.08-4.2v-7.06h-2.57l1.07,14.55h0Z"/>
      <path class="cls-2" d="M4.92,71.35c1.38.37,5.13,3.88,5.13,6.42v.43c-.68.46-1.01.72-2.05.95-1.49.33-4.67.61-6.16-.01-.79-.33-.78-.57-.78-1.58h-.43c-.41,1.76-.64,1.32-.64,3.64,0,2.58,8.94,2.69,10.7-.21,3.72-6.13-3.45-13.36-4.71-13.69-.26.55-1.05,3.31-1.07,4.06h0Z"/>
      <path class="cls-2" d="M50.06,73.91h-.43c-.02-.9-.38-1.8-.71-2.5-.22-.47-.23-.57-.44-1.06-.33-.76-.36-.39-.56-1.15h-.64c-.68,2.91-2.46,2.58-.8,4.22.51.51.37.35.73.98,1.75,3.02.12,5.65-2.46,7.68-2.68,2.11-4.59,2.04-5.39,2.74h7.27c.17-.64,1.26-1.82,1.9-3.45.48-1.23,1.19-2.76,1.31-4.25l.58.7c.25.27.39.43.69.59,1.57.83,4.15.25,5.57-.44,0,2.09-.85,2.98-1.79,4.2-.38.49-.39.35-.82.68l-2.53,1.97h4.71c.46-1.7,4.24-5.72,1.26-13.45-1.06-2.75-3.81-4.37-5.97-.67-.46.79-1.4,2.12-1.49,3.21h0ZM51.56,74.13c0-3.29,3.89-1.96,4.49.64-2.69,1.43-4.49.58-4.49-.64Z"/>
      <path class="cls-2" d="M23.96,70.28c0,2.06-.19,4.28-2.57,4.28-.77,0-.64-4.17-3.28-5.7-3.42-1.98-5.91,5.7-5.91,6.56,0,4.13,4.34,3.87,7.06,2.57,0,1.73-.19,2.15-1.13,3.37-.28.36-.37.54-.64.86-1.09,1.3-2.91,1.99-3.37,2.62h4.71c.24-.44.53-.92.76-1.38.77-1.53,1.45-3.54,1.59-5.25.94,0,1.28-.08,1.89-.46.58-.36.91-.76,1.1-1.46.68.5,1.01,1.93,3.21,1.93s6.33.3,7.7-.43c2.92-1.55,2.55-5.51,1.69-8.1-.19-.57-.37-.94-.65-1.49-.54-1.1-.52-.96-1.04-1.1l-1.5,2.99c1.14.76,1.74,2.38,2.14,3.21-.38.72-.61,1.28-1.71,1.28-2.43,0-6.78.5-7.48-.87-.43-.85-.44-7.99-.44-9.4h-2.14v5.99h0ZM14.12,74.13c0-1.28.33-1.14.86-1.93,1.65,0,3.44.4,3.64,2.78-.57.13-1.85.62-2.36.62-.95,0-1.57-.67-2.14-1.05v-.43h0Z"/>
      <path class="cls-2" d="M59.47,72.84c0,7.13,2.26,6.2,8.34,6.2,2.48,0,2.1-1.33,3.21-2.14.6,2.25,3.62,2.73,5.29,1.44.62-.48,1.12-.62,1.34-1.44h.43c.55,2.38,2.29,2.14,4.28,2.14,1.37,0,2.11-.39,3-.86,0,3.39.34,3.85,2.09,5.62.71.72,1.3,1.11,2.33,1.52,5.18,2.02,13.76-.77,15.05-6.28,2.25,0,2.73.18,4.28-.64v.64c2.09,0,4.98.38,5.56-2.14,1.59,1.07.98,2.14,3.64,2.14,1.96,0,2.47-1.36,3.64-2.14.51.97.92,1.86,2.14,2.14l-.21,2.57c0,2.5,6.23,2.02,7.89,1.47,2.59-.84.89-.41,2.38-.41,3.1,0,3.84.44,6.42-1.28v1.28c5.45,0,5.87-2,7.68-1.92,2.66.12,7.45,2.98,9.92.69.79-.73.64-.8,1.65-1.34,1.94,1.03,3.46,2.35,6.2,2.35,4.01,0,2.92-10.48-1.07-10.48-1.11,0-1.98.39-2.7,1.37-1.18,1.62-2.31,3.24-3.87,4.47-.53.41-.36.4-1.13.58,0-2.79-2.03-5.33-4.02-6.89-.35-.27-.35-.21-.74-.55l-2.3-1.76c-3.64-2.24-3.69-2.35-5.05-.13-.41.67-.71,1.12-.73,2.06h.64c-.47,1.75-2.73,2.52-1.26,5.97.24.57.7,1.01,1.05,1.52-.87.2-2.16.43-3.21.43.88-3.78-.96-5.19-1.5-7.49-1.01.08-.78.25-1.21,1.14-.91,1.87-.82,1.48.32,3.18,2.41,3.6-1.19,3.17-3.81,3.17.99-4.25-1.74-7.77-4.44-10.54-.56-.58-.44-.73-1.34-.8-.12,1.48-.86,2.54-.86,4.06.83.22,1.07.64,1.67,1.11,1.71,1.34,3.46,3.35,3.46,5.74-.81.54-1.22.76-2.43.99-1.89.36-4.65.54-6.34-.35.53-.72,1.39-1.14,1.89-1.96,1.04-1.72,1.07-4.34.32-6.24-.21-.54-.33-.72-.58-1.35-.29-.71-.31-.75-.99-.93l-1.28,2.78c.71,1.06,1.92,1.97,1.92,3.64-1.21.58-2.02.42-2.95-.69-.53-.63-.57-1.18-.91-1.88-.92.25-1.03,1.1-1.65,1.77-2.1,2.3-4.58.85-5.19-1.77h-.64c-.52,2.24-2.02,2.78-4.28,2.78.37-1.6.08-3.48-.45-4.9-.31-.84-.83-2.36-1.69-2.59-.18.78-.36.78-.72,1.42-.32.57-.51,1.05-.78,1.57,1.2,1.79.64.08,2.14,3.21-.95,1.8-2.41,1.28-4.28,1.28,0-3.29-1.38-4.28-1.93-6.63h-.43c-.7,2.98-2.56,1.63-.6,4.66,1.56,2.41,2.18,5.28-.47,7.11-.67.46-1.16.55-1.96.82-5.07,1.69-12.38.87-12.38-4.25,1.61,1.08,5,3.31,6.91,1.56,2.25-2.07,1.52-6.58-.18-8.71-.42-.53-.03-.09-.55-.52-3.92-3.3-5.69,5.42-9.59,5.74,0-1.38-.03-3-.51-4.2-.19-.46-.39-.76-.56-1.15-.37-.83.03-.58-.64-1.07-.47.34-1.5,2.15-1.5,2.78,0,.29,1.93,2.15,1.93,3.21,0,1.41-3.59,1.03-3.85-2.14-1.08.09-1.19,1.1-1.87,1.77-1.75,1.75-3.86,1.51-4.83-.85-.39-.93.15-.39-.58-.92-2.4,1.76,1.23,2.78-7.7,2.78-2.14,0-1.97-2.3-2.14-4.7-.15-2.1,0-4.31,0-6.42h-2.14v8.56h0ZM151.67,74.77c1.18.63,2.87,2.27,3.5,3.57.76,1.57-.29,1.09-1.45.8l-2.91-.73c.12-1.47.86-1.32.86-3.64ZM164.08,75.2c.43,0,.74.26,1.02.48l.78.72c1.21,1.38,2.37,5.29-3.37,2.09-.57-.31-.52-.4-.99-.72.43-.82,1.42-2.57,2.57-2.57ZM145.26,74.56c0-1.54,1.37-1.71,2.57-1.71,1.01,0,2.05.34,2.14,1.07.55,4.54-4.71,3.08-4.71.64h0ZM88.57,74.34c.42-.63,1.45-2.35,2.35-2.35,1.54,0,3,1.92,3,4.06l-.85.44c-1.7-.15-3.76-1.05-4.5-2.15h0Z"/>
      <path class="cls-3" d="M4.04,97.13H0v-7.32h3.87v.77H.89v2.43h2.75v.77H.89v2.56h3.15v.77h0ZM8.18,94.55h-2.9v-.66h2.9v.66ZM13.81,97.13h-3.95v-7.32h.89v6.54h3.06v.77h0ZM17.68,97.25c-1.08,0-1.95-.34-2.6-1.03-.65-.68-.98-1.57-.98-2.67,0-1.18.33-2.12.99-2.82.66-.7,1.57-1.05,2.71-1.05,1.05,0,1.9.34,2.54,1.02.64.68.97,1.57.97,2.67,0,1.19-.33,2.14-.99,2.83-.66.69-1.54,1.04-2.65,1.04h0ZM17.75,90.46c-.8,0-1.45.28-1.95.83-.5.56-.75,1.28-.75,2.18s.24,1.63.73,2.18c.49.55,1.12.82,1.91.82.84,0,1.5-.26,1.98-.79.48-.52.72-1.26.72-2.2s-.23-1.71-.7-2.24c-.47-.53-1.11-.79-1.94-.79h0ZM25.89,97.25c-1.08,0-1.95-.34-2.6-1.03-.65-.68-.98-1.57-.98-2.67,0-1.18.33-2.12.99-2.82.66-.7,1.57-1.05,2.71-1.05,1.05,0,1.9.34,2.54,1.02.64.68.97,1.57.97,2.67,0,1.19-.33,2.14-.99,2.83-.66.69-1.54,1.04-2.65,1.04h0ZM25.95,90.46c-.8,0-1.45.28-1.95.83-.5.56-.75,1.28-.75,2.18s.24,1.63.73,2.18c.49.55,1.12.82,1.91.82.84,0,1.5-.26,1.98-.79.48-.52.72-1.26.72-2.2s-.23-1.71-.7-2.24c-.47-.53-1.11-.79-1.94-.79h0ZM31.02,97.13v-7.32h2.1c2.69,0,4.03,1.19,4.03,3.57,0,1.13-.37,2.04-1.12,2.72-.75.68-1.74,1.03-3,1.03h-2.02,0ZM31.92,90.59v5.77h1.14c1,0,1.78-.26,2.33-.77.56-.51.83-1.24.83-2.18,0-1.87-1.04-2.81-3.12-2.81h-1.19,0Z"/>
      <path class="cls-3" d="M49.49,96.82c-.56.29-1.25.43-2.09.43-1.07,0-1.93-.33-2.58-1-.65-.67-.97-1.55-.97-2.64,0-1.17.36-2.11,1.09-2.83.73-.72,1.65-1.08,2.76-1.08.72,0,1.31.1,1.78.3v.91c-.54-.29-1.14-.44-1.79-.44-.87,0-1.57.28-2.11.84-.54.56-.81,1.31-.81,2.25s.25,1.6.75,2.13c.51.53,1.16.79,1.98.79.76,0,1.41-.16,1.97-.49v.83h0ZM53.93,97.25c-1.07,0-1.93-.34-2.57-1.03-.64-.68-.97-1.57-.97-2.67,0-1.18.33-2.12.99-2.82.66-.7,1.55-1.05,2.68-1.05,1.04,0,1.88.34,2.52,1.02.64.68.96,1.57.96,2.67,0,1.19-.33,2.14-.98,2.83-.65.69-1.53,1.04-2.62,1.04h0ZM53.99,90.46c-.79,0-1.44.28-1.93.83-.49.56-.74,1.28-.74,2.18s.24,1.63.72,2.18c.48.55,1.11.82,1.89.82.83,0,1.48-.26,1.96-.79.48-.52.72-1.26.72-2.2s-.23-1.71-.69-2.24c-.46-.53-1.1-.79-1.92-.79h0ZM65.11,97.13h-1.09l-3.89-5.83c-.1-.15-.18-.3-.24-.46h-.03c.03.16.04.49.04,1v5.29h-.88v-7.32h1.15l3.78,5.74c.16.24.26.4.31.49h.02c-.04-.21-.05-.57-.05-1.08v-5.15h.89v7.32h0ZM66.73,96.83v-1.01c.12.1.26.19.43.28.17.08.34.15.53.21.19.06.37.1.56.13.19.03.36.05.52.05.54,0,.95-.1,1.22-.29.27-.2.4-.48.4-.84,0-.2-.04-.37-.13-.52-.09-.15-.21-.28-.37-.4-.16-.12-.35-.24-.56-.35-.22-.11-.45-.23-.7-.35-.26-.13-.51-.26-.74-.39-.23-.13-.43-.28-.59-.44-.17-.16-.3-.34-.4-.54-.1-.2-.15-.44-.15-.71,0-.33.08-.62.23-.87.15-.25.35-.45.59-.61.25-.16.53-.28.84-.36.31-.08.63-.12.96-.12.74,0,1.29.09,1.63.26v.96c-.45-.3-1.02-.45-1.72-.45-.19,0-.39.02-.58.06-.19.04-.36.1-.52.19-.15.09-.27.2-.37.34-.1.14-.14.31-.14.51,0,.19.04.35.11.48.07.14.18.26.32.37.14.11.31.22.51.33.2.11.43.22.7.35.27.13.53.27.77.41.24.14.45.3.64.47.18.17.33.37.43.58.11.21.16.45.16.72,0,.36-.07.67-.22.92-.15.25-.34.45-.59.61-.25.16-.53.27-.86.34-.32.07-.66.1-1.02.1-.12,0-.27,0-.44-.03-.17-.02-.35-.05-.54-.08-.18-.03-.35-.08-.52-.13s-.29-.11-.39-.18h0ZM78.34,94.17c0,2.05-.96,3.08-2.87,3.08s-2.75-.99-2.75-2.96v-4.47h.88v4.42c0,1.5.65,2.25,1.96,2.25s1.89-.72,1.89-2.17v-4.49h.88v4.36h0ZM84.14,97.13h-3.92v-7.32h.88v6.54h3.03v.77ZM89.17,90.59h-2.18v6.54h-.88v-6.54h-2.17v-.77h5.24v.77ZM91.24,97.13h-.88v-7.32h.88v7.32ZM99.31,97.13h-1.09l-3.89-5.83c-.1-.15-.18-.3-.24-.46h-.03c.03.16.04.49.04,1v5.29h-.88v-7.32h1.15l3.78,5.74c.16.24.26.4.31.49h.02c-.04-.21-.05-.57-.05-1.08v-5.15h.89v7.32h0ZM106.94,96.63c-.76.41-1.6.62-2.53.62-1.08,0-1.95-.34-2.61-1.01-.67-.67-1-1.56-1-2.67s.37-2.06,1.11-2.79c.74-.73,1.68-1.09,2.81-1.09.82,0,1.51.13,2.07.39v.95c-.61-.37-1.33-.56-2.17-.56s-1.54.28-2.08.85c-.54.56-.81,1.3-.81,2.19s.25,1.65.75,2.18c.5.53,1.18.79,2.04.79.59,0,1.1-.11,1.53-.34v-2.05h-1.65v-.77h2.54v3.32h0Z"/>
      <path class="cls-3" d="M118.34,97.12h-4.06v-7.43h3.89v.79h-2.99v2.47h2.77v.78h-2.77v2.6h3.16v.79h0ZM126,97.12h-1.1l-3.94-5.93c-.1-.15-.18-.3-.25-.47h-.03c.03.16.04.5.04,1.02v5.37h-.9v-7.43h1.17l3.84,5.83c.16.24.26.41.31.5h.02c-.04-.21-.05-.58-.05-1.09v-5.24h.9v7.43h0ZM133.74,96.62c-.77.42-1.62.63-2.57.63-1.09,0-1.98-.34-2.65-1.03-.68-.68-1.01-1.59-1.01-2.72s.38-2.1,1.13-2.83c.75-.74,1.7-1.11,2.85-1.11.83,0,1.53.13,2.1.39v.96c-.62-.38-1.35-.57-2.2-.57s-1.56.29-2.11.86c-.55.57-.82,1.32-.82,2.23s.26,1.68.76,2.22c.51.54,1.2.81,2.07.81.6,0,1.12-.12,1.55-.35v-2.08h-1.68v-.79h2.58v3.37h0ZM136.41,97.12h-.9v-7.43h.9v7.43h0ZM144.61,97.12h-1.1l-3.94-5.93c-.1-.15-.18-.3-.25-.47h-.03c.03.16.04.5.04,1.02v5.37h-.9v-7.43h1.17l3.84,5.83c.16.24.26.41.31.5h.02c-.04-.21-.05-.58-.05-1.09v-5.24h.9v7.43h0ZM150.68,97.12h-4.06v-7.43h3.89v.79h-2.99v2.47h2.77v.78h-2.77v2.6h3.16v.79h0ZM156.22,97.12h-4.06v-7.43h3.89v.79h-2.99v2.47h2.77v.78h-2.77v2.6h3.16v.79h0ZM163.19,97.12h-1.07l-1.28-2.08c-.12-.19-.23-.36-.34-.5-.11-.14-.22-.25-.34-.33-.12-.09-.24-.15-.37-.19-.13-.04-.28-.06-.45-.06h-.74v3.16h-.9v-7.43h2.29c.33,0,.64.04.93.12.28.08.53.2.74.37.21.17.37.37.49.62.12.25.18.54.18.87,0,.26-.04.5-.12.71-.08.22-.19.41-.34.58-.15.17-.33.32-.53.43-.21.12-.44.21-.7.28v.02c.13.06.24.12.34.19.09.07.18.16.27.25.09.1.17.21.26.33.08.12.18.26.28.43l1.44,2.24h0ZM158.59,90.48v2.7h1.22c.22,0,.43-.03.62-.1.19-.07.36-.16.49-.28.14-.12.25-.27.33-.45.08-.18.12-.38.12-.6,0-.4-.13-.71-.4-.93-.26-.22-.65-.33-1.15-.33h-1.23,0ZM163.88,96.82v-1.03c.12.1.27.2.44.28.17.08.35.15.53.21.19.06.38.1.56.13.19.03.36.05.52.05.55,0,.97-.1,1.24-.3.27-.2.41-.48.41-.86,0-.2-.05-.38-.14-.52-.09-.15-.22-.28-.38-.41-.16-.12-.35-.24-.57-.35-.22-.11-.46-.23-.71-.35-.27-.13-.52-.27-.75-.4-.23-.13-.43-.28-.6-.45-.17-.16-.3-.35-.4-.55-.1-.21-.15-.45-.15-.72,0-.34.08-.63.23-.88.15-.25.36-.46.6-.62.25-.16.53-.28.85-.36.32-.08.64-.12.97-.12.76,0,1.31.09,1.65.27v.98c-.45-.3-1.03-.46-1.74-.46-.2,0-.39.02-.59.06-.2.04-.37.11-.52.19-.15.09-.28.21-.37.35-.1.14-.14.31-.14.52,0,.19.04.35.11.49.07.14.18.26.32.38.14.11.32.22.52.33.2.11.44.22.71.35.28.13.53.27.78.42.25.15.46.31.65.48.19.18.33.37.44.59.11.21.16.46.16.74,0,.37-.07.68-.22.93-.15.25-.35.46-.6.62-.25.16-.54.27-.87.35-.33.07-.67.11-1.04.11-.12,0-.27,0-.45-.03-.18-.02-.36-.05-.55-.08-.18-.04-.36-.08-.53-.13-.17-.05-.3-.11-.4-.18h0Z"/>
    </g>
  </g>
</svg>