<?xml version="1.0" encoding="UTF-8"?>
<svg id="Layer_1" data-name="Layer 1" xmlns="http://www.w3.org/2000/svg" xmlns:xlink="http://www.w3.org/1999/xlink" viewBox="0 0 6.15 4.18">
  <defs>
    <style>
      .cls-1 {
        fill: none;
      }

      .cls-1, .cls-2, .cls-3, .cls-4, .cls-5 {
        stroke-width: 0px;
      }

      .cls-2 {
        fill: #ed1c24;
      }

      .cls-6 {
        clip-path: url(#clippath);
      }

      .cls-3 {
        fill: #00a04f;
      }

      .cls-4 {
        fill: #fff;
      }

      .cls-5 {
        fill: #253477;
      }
    </style>
    <clipPath id="clippath">
      <rect class="cls-1" width="6.15" height="4.18" rx=".83" ry=".83"/>
    </clipPath>
  </defs>
  <g class="cls-6">
    <g>
      <g>
        <rect class="cls-4" x="-.98" y="-.08" width="8.25" height="4.32"/>
        <polygon class="cls-2" points="7.27 1.65 3.64 1.65 3.64 -.08 2.64 -.08 2.64 1.65 -.98 1.65 -.98 2.52 2.64 2.52 2.64 4.25 3.64 4.25 3.64 2.52 7.27 2.52 7.27 1.65"/>
      </g>
      <g>
        <polygon class="cls-5" points="-.98 .43 -.98 1.37 .82 1.37 -.98 .43"/>
        <polygon class="cls-5" points=".01 -.08 -.01 -.08 2.32 1.15 2.32 -.08 .01 -.08"/>
        <polygon class="cls-2" points="1.79 1.36 -.98 -.08 -.98 .26 1.13 1.36 1.79 1.36"/>
        <polygon class="cls-2" points="4.5 2.81 7.27 4.25 7.27 3.91 5.16 2.81 4.5 2.81"/>
      </g>
      <g>
        <polygon class="cls-5" points="-.98 3.75 -.98 2.81 .82 2.81 -.98 3.75"/>
        <polygon class="cls-5" points=".01 4.26 -.01 4.25 2.32 3.03 2.32 4.26 .01 4.26"/>
        <polygon class="cls-2" points="1.77 2.81 -.98 4.25 -.33 4.25 2.32 2.87 2.32 2.81 1.77 2.81"/>
      </g>
      <g>
        <polygon class="cls-5" points="7.27 .43 7.27 1.37 5.47 1.37 7.27 .43"/>
        <polygon class="cls-5" points="6.28 -.08 6.3 -.08 3.97 1.15 3.97 -.08 6.28 -.08"/>
        <polygon class="cls-2" points="7.27 -.07 6.65 -.07 3.97 1.32 3.97 1.36 4.54 1.36 7.27 -.07"/>
      </g>
      <g>
        <polygon class="cls-5" points="7.27 3.75 7.27 2.81 5.47 2.81 7.27 3.75"/>
        <polygon class="cls-5" points="6.28 4.26 6.3 4.25 3.97 3.03 3.97 4.26 6.28 4.26"/>
      </g>
    </g>
    <g>
      <g>
        <rect class="cls-3" x="-.91" y="-.03" width="8" height="1.38"/>
        <rect class="cls-4" x="-.91" y="1.35" width="8" height="1.41"/>
        <rect class="cls-2" x="-.91" y="2.77" width="8" height="1.41"/>
      </g>
      <g>
        <path class="cls-2" d="M2.88,1.71s-.27.07-.29.34c-.01.33.19.4.19.4-.05-.06-.1-.18-.1-.36s.2-.38.2-.38Z"/>
        <path class="cls-2" d="M3.59,2.06c-.02-.28-.29-.34-.29-.34,0,0,.2.21.2.38s-.05.3-.1.36c0,0,.2-.06.19-.4Z"/>
        <path class="cls-2" d="M3.37,2.3c.15-.37-.11-.57-.11-.57,0,0,.13.19.07.42-.04.14-.11.23-.18.29v-.7s-.05-.06-.05-.06l-.06.06v.7c-.06-.06-.13-.15-.18-.3-.06-.23.07-.42.07-.42,0,0-.27.2-.11.57.05.11.12.18.19.22-.1.04-.18.03-.18.03,0,0,.11.03.23.01l.04.06.04-.06c.12.02.22-.01.22-.01,0,0-.08,0-.18-.03.07-.04.14-.11.19-.22Z"/>
        <path class="cls-2" d="M3.02,1.7s.06-.04.06-.07c0,.03.02.07.06.07.08,0,.07-.08.06-.11,0,0,0,.07-.06.07s-.06-.05-.06-.05c0,0,0,0,0,0,0,0,0,0,0,0,0,0-.01.05-.06.05s-.06-.07-.06-.07c-.01.03-.02.11.06.11Z"/>
      </g>
      <g>
        <g>
          <g>
            <rect class="cls-4" x="-.08" y="1.12" width=".47" height=".04"/>
            <polygon class="cls-4" points=".14 1.19 .14 1.23 .21 1.23 .21 1.26 .11 1.26 .11 1.19 .11 1.19 .07 1.19 -.08 1.19 -.08 1.19 -.08 1.32 -.03 1.32 -.03 1.23 .07 1.23 .07 1.32 .11 1.32 .25 1.32 .25 1.32 .25 1.32 .25 1.19 .14 1.19"/>
            <rect class="cls-4" x="0" y="1.26" width=".05" height=".05"/>
          </g>
          <polygon class="cls-4" points=".56 1.12 .56 1.26 .53 1.26 .53 1.12 .49 1.12 .49 1.26 .46 1.26 .46 1.12 .42 1.12 .42 1.19 .28 1.19 .28 1.19 .28 1.19 .28 1.32 .28 1.32 .32 1.32 .32 1.32 .39 1.32 .39 1.26 .32 1.26 .32 1.23 .42 1.23 .42 1.32 .42 1.32 .61 1.32 .61 1.12 .56 1.12"/>
          <rect class="cls-4" x="-.08" y="1.34" width=".33" height=".05"/>
          <rect class="cls-4" x=".28" y="1.34" width=".33" height=".05"/>
        </g>
        <g>
          <g>
            <rect class="cls-4" x=".63" y="1.12" width=".47" height=".04"/>
            <polygon class="cls-4" points=".85 1.19 .85 1.23 .92 1.23 .92 1.26 .82 1.26 .82 1.19 .82 1.19 .78 1.19 .63 1.19 .63 1.19 .63 1.32 .68 1.32 .68 1.23 .78 1.23 .78 1.32 .82 1.32 .95 1.32 .95 1.32 .96 1.32 .96 1.19 .85 1.19"/>
            <rect class="cls-4" x=".7" y="1.26" width=".05" height=".05"/>
          </g>
          <polygon class="cls-4" points="1.27 1.12 1.27 1.26 1.23 1.26 1.23 1.12 1.19 1.12 1.19 1.26 1.16 1.26 1.16 1.12 1.12 1.12 1.12 1.19 .98 1.19 .98 1.19 .98 1.19 .98 1.32 .98 1.32 1.02 1.32 1.02 1.32 1.09 1.32 1.09 1.26 1.02 1.26 1.02 1.23 1.12 1.23 1.12 1.32 1.12 1.32 1.31 1.32 1.31 1.12 1.27 1.12"/>
          <rect class="cls-4" x=".63" y="1.34" width=".33" height=".05"/>
          <rect class="cls-4" x=".99" y="1.34" width=".33" height=".05"/>
        </g>
        <g>
          <g>
            <rect class="cls-4" x="1.33" y="1.12" width=".47" height=".04"/>
            <polygon class="cls-4" points="1.55 1.19 1.55 1.23 1.62 1.23 1.62 1.26 1.52 1.26 1.52 1.19 1.52 1.19 1.48 1.19 1.33 1.19 1.33 1.19 1.33 1.32 1.38 1.32 1.38 1.23 1.48 1.23 1.48 1.32 1.52 1.32 1.66 1.32 1.66 1.32 1.66 1.32 1.66 1.19 1.55 1.19"/>
            <rect class="cls-4" x="1.4" y="1.26" width=".05" height=".05"/>
          </g>
          <polygon class="cls-4" points="1.98 1.12 1.98 1.26 1.94 1.26 1.94 1.12 1.9 1.12 1.9 1.26 1.87 1.26 1.87 1.12 1.83 1.12 1.83 1.19 1.69 1.19 1.69 1.19 1.69 1.19 1.69 1.32 1.69 1.32 1.73 1.32 1.73 1.32 1.8 1.32 1.8 1.26 1.73 1.26 1.73 1.23 1.83 1.23 1.83 1.32 1.83 1.32 2.02 1.32 2.02 1.12 1.98 1.12"/>
          <rect class="cls-4" x="1.34" y="1.34" width=".33" height=".05"/>
          <rect class="cls-4" x="1.69" y="1.34" width=".33" height=".05"/>
        </g>
        <g>
          <g>
            <rect class="cls-4" x="2.04" y="1.12" width=".47" height=".04"/>
            <polygon class="cls-4" points="2.26 1.19 2.26 1.23 2.33 1.23 2.33 1.26 2.23 1.26 2.23 1.19 2.23 1.19 2.19 1.19 2.04 1.19 2.04 1.19 2.04 1.32 2.09 1.32 2.09 1.23 2.19 1.23 2.19 1.32 2.23 1.32 2.37 1.32 2.37 1.32 2.37 1.32 2.37 1.19 2.26 1.19"/>
            <rect class="cls-4" x="2.11" y="1.26" width=".05" height=".05"/>
          </g>
          <polygon class="cls-4" points="2.68 1.12 2.68 1.26 2.65 1.26 2.65 1.12 2.61 1.12 2.61 1.26 2.58 1.26 2.58 1.12 2.54 1.12 2.54 1.19 2.4 1.19 2.4 1.19 2.4 1.19 2.4 1.32 2.4 1.32 2.44 1.32 2.44 1.32 2.51 1.32 2.51 1.26 2.44 1.26 2.44 1.23 2.54 1.23 2.54 1.32 2.54 1.32 2.72 1.32 2.72 1.12 2.68 1.12"/>
          <rect class="cls-4" x="2.04" y="1.34" width=".33" height=".05"/>
          <rect class="cls-4" x="2.4" y="1.34" width=".33" height=".05"/>
        </g>
        <g>
          <g>
            <rect class="cls-4" x="2.75" y="1.12" width=".47" height=".04"/>
            <polygon class="cls-4" points="2.96 1.19 2.96 1.23 3.03 1.23 3.03 1.26 2.93 1.26 2.93 1.19 2.93 1.19 2.89 1.19 2.75 1.19 2.75 1.19 2.75 1.32 2.8 1.32 2.8 1.23 2.89 1.23 2.89 1.32 2.93 1.32 3.07 1.32 3.07 1.32 3.07 1.32 3.07 1.19 2.96 1.19"/>
            <rect class="cls-4" x="2.82" y="1.26" width=".05" height=".05"/>
          </g>
          <polygon class="cls-4" points="3.39 1.12 3.39 1.26 3.35 1.26 3.35 1.12 3.31 1.12 3.31 1.26 3.28 1.26 3.28 1.12 3.24 1.12 3.24 1.19 3.1 1.19 3.1 1.19 3.1 1.19 3.1 1.32 3.1 1.32 3.14 1.32 3.14 1.32 3.21 1.32 3.21 1.26 3.14 1.26 3.14 1.23 3.24 1.23 3.24 1.32 3.24 1.32 3.43 1.32 3.43 1.12 3.39 1.12"/>
          <rect class="cls-4" x="2.75" y="1.34" width=".33" height=".05"/>
          <rect class="cls-4" x="3.11" y="1.34" width=".33" height=".05"/>
        </g>
        <g>
          <g>
            <rect class="cls-4" x="3.45" y="1.12" width=".47" height=".04"/>
            <polygon class="cls-4" points="3.67 1.19 3.67 1.23 3.74 1.23 3.74 1.26 3.64 1.26 3.64 1.19 3.64 1.19 3.6 1.19 3.45 1.19 3.45 1.19 3.45 1.32 3.5 1.32 3.5 1.23 3.6 1.23 3.6 1.32 3.64 1.32 3.78 1.32 3.78 1.32 3.78 1.32 3.78 1.19 3.67 1.19"/>
            <rect class="cls-4" x="3.52" y="1.26" width=".05" height=".05"/>
          </g>
          <polygon class="cls-4" points="4.1 1.12 4.1 1.26 4.06 1.26 4.06 1.12 4.02 1.12 4.02 1.26 3.99 1.26 3.99 1.12 3.95 1.12 3.95 1.19 3.81 1.19 3.81 1.19 3.81 1.19 3.81 1.32 3.81 1.32 3.85 1.32 3.85 1.32 3.92 1.32 3.92 1.26 3.85 1.26 3.85 1.23 3.95 1.23 3.95 1.32 3.95 1.32 4.14 1.32 4.14 1.12 4.1 1.12"/>
          <rect class="cls-4" x="3.45" y="1.34" width=".33" height=".05"/>
          <rect class="cls-4" x="3.81" y="1.34" width=".33" height=".05"/>
        </g>
        <g>
          <g>
            <rect class="cls-4" x="4.16" y="1.12" width=".47" height=".04"/>
            <polygon class="cls-4" points="4.38 1.19 4.38 1.23 4.45 1.23 4.45 1.26 4.35 1.26 4.35 1.19 4.35 1.19 4.31 1.19 4.16 1.19 4.16 1.19 4.16 1.32 4.21 1.32 4.21 1.23 4.31 1.23 4.31 1.32 4.35 1.32 4.49 1.32 4.49 1.32 4.49 1.32 4.49 1.19 4.38 1.19"/>
            <rect class="cls-4" x="4.23" y="1.26" width=".05" height=".05"/>
          </g>
          <polygon class="cls-4" points="4.8 1.12 4.8 1.26 4.76 1.26 4.76 1.12 4.72 1.12 4.72 1.26 4.69 1.26 4.69 1.12 4.65 1.12 4.65 1.19 4.52 1.19 4.52 1.19 4.52 1.19 4.52 1.32 4.52 1.32 4.55 1.32 4.55 1.32 4.62 1.32 4.62 1.26 4.55 1.26 4.55 1.23 4.65 1.23 4.65 1.32 4.65 1.32 4.84 1.32 4.84 1.12 4.8 1.12"/>
          <rect class="cls-4" x="4.16" y="1.34" width=".33" height=".05"/>
          <rect class="cls-4" x="4.52" y="1.34" width=".33" height=".05"/>
        </g>
        <g>
          <g>
            <rect class="cls-4" x="4.87" y="1.12" width=".47" height=".04"/>
            <polygon class="cls-4" points="5.08 1.19 5.08 1.23 5.15 1.23 5.15 1.26 5.05 1.26 5.05 1.19 5.05 1.19 5.01 1.19 4.86 1.19 4.86 1.19 4.86 1.32 4.91 1.32 4.91 1.23 5.01 1.23 5.01 1.32 5.05 1.32 5.19 1.32 5.19 1.32 5.19 1.32 5.19 1.19 5.08 1.19"/>
            <rect class="cls-4" x="4.93" y="1.26" width=".05" height=".05"/>
          </g>
          <polygon class="cls-4" points="5.51 1.12 5.51 1.26 5.47 1.26 5.47 1.12 5.43 1.12 5.43 1.26 5.4 1.26 5.4 1.12 5.36 1.12 5.36 1.19 5.22 1.19 5.22 1.19 5.22 1.19 5.22 1.32 5.22 1.32 5.26 1.32 5.26 1.32 5.33 1.32 5.33 1.26 5.26 1.26 5.26 1.23 5.36 1.23 5.36 1.32 5.36 1.32 5.55 1.32 5.55 1.12 5.51 1.12"/>
          <rect class="cls-4" x="4.87" y="1.34" width=".33" height=".05"/>
          <rect class="cls-4" x="5.23" y="1.34" width=".33" height=".05"/>
        </g>
        <g>
          <g>
            <rect class="cls-4" x="5.57" y="1.12" width=".47" height=".04"/>
            <polygon class="cls-4" points="5.79 1.19 5.79 1.23 5.86 1.23 5.86 1.26 5.76 1.26 5.76 1.19 5.76 1.19 5.72 1.19 5.57 1.19 5.57 1.19 5.57 1.32 5.62 1.32 5.62 1.23 5.72 1.23 5.72 1.32 5.76 1.32 5.9 1.32 5.9 1.32 5.9 1.32 5.9 1.19 5.79 1.19"/>
            <rect class="cls-4" x="5.64" y="1.26" width=".05" height=".05"/>
          </g>
          <polygon class="cls-4" points="6.21 1.12 6.21 1.26 6.18 1.26 6.18 1.12 6.14 1.12 6.14 1.26 6.11 1.26 6.11 1.12 6.07 1.12 6.07 1.19 5.93 1.19 5.93 1.19 5.93 1.19 5.93 1.32 5.93 1.32 5.97 1.32 5.97 1.32 6.04 1.32 6.04 1.26 5.97 1.26 5.97 1.23 6.07 1.23 6.07 1.32 6.07 1.32 6.26 1.32 6.26 1.12 6.21 1.12"/>
          <rect class="cls-4" x="5.57" y="1.34" width=".33" height=".05"/>
          <rect class="cls-4" x="5.93" y="1.34" width=".33" height=".05"/>
        </g>
      </g>
      <g>
        <g>
          <g>
            <rect class="cls-4" x="-.08" y="2.84" width=".47" height=".04"/>
            <polygon class="cls-4" points=".14 2.91 .14 2.96 .21 2.96 .21 2.99 .11 2.99 .11 2.91 .11 2.91 .07 2.91 -.08 2.91 -.08 2.91 -.08 3.04 -.03 3.04 -.03 2.95 .07 2.95 .07 3.04 .11 3.04 .25 3.04 .25 3.04 .25 3.04 .25 2.91 .14 2.91"/>
            <rect class="cls-4" x="0" y="2.98" width=".05" height=".05"/>
          </g>
          <polygon class="cls-4" points=".56 2.84 .56 2.99 .53 2.99 .53 2.84 .49 2.84 .49 2.99 .46 2.99 .46 2.84 .42 2.84 .42 2.91 .28 2.91 .28 2.92 .28 2.92 .28 3.04 .28 3.04 .32 3.04 .32 3.04 .39 3.04 .39 2.99 .32 2.99 .32 2.96 .42 2.96 .42 3.04 .42 3.04 .61 3.04 .61 2.84 .56 2.84"/>
          <rect class="cls-4" x="-.08" y="2.76" width=".33" height=".05"/>
          <rect class="cls-4" x=".28" y="2.76" width=".33" height=".05"/>
        </g>
        <g>
          <g>
            <rect class="cls-4" x=".63" y="2.84" width=".47" height=".04"/>
            <polygon class="cls-4" points=".85 2.91 .85 2.96 .92 2.96 .92 2.99 .82 2.99 .82 2.91 .82 2.91 .78 2.91 .63 2.91 .63 2.91 .63 3.04 .68 3.04 .68 2.95 .78 2.95 .78 3.04 .82 3.04 .95 3.04 .95 3.04 .96 3.04 .96 2.91 .85 2.91"/>
            <rect class="cls-4" x=".7" y="2.98" width=".05" height=".05"/>
          </g>
          <polygon class="cls-4" points="1.27 2.84 1.27 2.99 1.23 2.99 1.23 2.84 1.19 2.84 1.19 2.99 1.16 2.99 1.16 2.84 1.12 2.84 1.12 2.91 .98 2.91 .98 2.92 .98 2.92 .98 3.04 .98 3.04 1.02 3.04 1.02 3.04 1.09 3.04 1.09 2.99 1.02 2.99 1.02 2.96 1.12 2.96 1.12 3.04 1.12 3.04 1.31 3.04 1.31 2.84 1.27 2.84"/>
          <rect class="cls-4" x=".63" y="2.76" width=".33" height=".05"/>
          <rect class="cls-4" x=".99" y="2.76" width=".33" height=".05"/>
        </g>
        <g>
          <g>
            <rect class="cls-4" x="1.33" y="2.84" width=".47" height=".04"/>
            <polygon class="cls-4" points="1.55 2.91 1.55 2.96 1.62 2.96 1.62 2.99 1.52 2.99 1.52 2.91 1.52 2.91 1.48 2.91 1.33 2.91 1.33 2.91 1.33 3.04 1.38 3.04 1.38 2.95 1.48 2.95 1.48 3.04 1.52 3.04 1.66 3.04 1.66 3.04 1.66 3.04 1.66 2.91 1.55 2.91"/>
            <rect class="cls-4" x="1.4" y="2.98" width=".05" height=".05"/>
          </g>
          <polygon class="cls-4" points="1.98 2.84 1.98 2.99 1.94 2.99 1.94 2.84 1.9 2.84 1.9 2.99 1.87 2.99 1.87 2.84 1.83 2.84 1.83 2.91 1.69 2.91 1.69 2.92 1.69 2.92 1.69 3.04 1.69 3.04 1.73 3.04 1.73 3.04 1.8 3.04 1.8 2.99 1.73 2.99 1.73 2.96 1.83 2.96 1.83 3.04 1.83 3.04 2.02 3.04 2.02 2.84 1.98 2.84"/>
          <rect class="cls-4" x="1.34" y="2.76" width=".33" height=".05"/>
          <rect class="cls-4" x="1.69" y="2.76" width=".33" height=".05"/>
        </g>
        <g>
          <g>
            <rect class="cls-4" x="2.04" y="2.84" width=".47" height=".04"/>
            <polygon class="cls-4" points="2.26 2.91 2.26 2.96 2.33 2.96 2.33 2.99 2.23 2.99 2.23 2.91 2.23 2.91 2.19 2.91 2.04 2.91 2.04 2.91 2.04 3.04 2.09 3.04 2.09 2.95 2.19 2.95 2.19 3.04 2.23 3.04 2.37 3.04 2.37 3.04 2.37 3.04 2.37 2.91 2.26 2.91"/>
            <rect class="cls-4" x="2.11" y="2.98" width=".05" height=".05"/>
          </g>
          <polygon class="cls-4" points="2.68 2.84 2.68 2.99 2.65 2.99 2.65 2.84 2.61 2.84 2.61 2.99 2.58 2.99 2.58 2.84 2.54 2.84 2.54 2.91 2.4 2.91 2.4 2.92 2.4 2.92 2.4 3.04 2.4 3.04 2.44 3.04 2.44 3.04 2.51 3.04 2.51 2.99 2.44 2.99 2.44 2.96 2.54 2.96 2.54 3.04 2.54 3.04 2.72 3.04 2.72 2.84 2.68 2.84"/>
          <rect class="cls-4" x="2.04" y="2.76" width=".33" height=".05"/>
          <rect class="cls-4" x="2.4" y="2.76" width=".33" height=".05"/>
        </g>
        <g>
          <g>
            <rect class="cls-4" x="2.75" y="2.84" width=".47" height=".04"/>
            <polygon class="cls-4" points="2.96 2.91 2.96 2.96 3.03 2.96 3.03 2.99 2.93 2.99 2.93 2.91 2.93 2.91 2.89 2.91 2.75 2.91 2.75 2.91 2.75 3.04 2.8 3.04 2.8 2.95 2.89 2.95 2.89 3.04 2.93 3.04 3.07 3.04 3.07 3.04 3.07 3.04 3.07 2.91 2.96 2.91"/>
            <rect class="cls-4" x="2.82" y="2.98" width=".05" height=".05"/>
          </g>
          <polygon class="cls-4" points="3.39 2.84 3.39 2.99 3.35 2.99 3.35 2.84 3.31 2.84 3.31 2.99 3.28 2.99 3.28 2.84 3.24 2.84 3.24 2.91 3.1 2.91 3.1 2.92 3.1 2.92 3.1 3.04 3.1 3.04 3.14 3.04 3.14 3.04 3.21 3.04 3.21 2.99 3.14 2.99 3.14 2.96 3.24 2.96 3.24 3.04 3.24 3.04 3.43 3.04 3.43 2.84 3.39 2.84"/>
          <rect class="cls-4" x="2.75" y="2.76" width=".33" height=".05"/>
          <rect class="cls-4" x="3.11" y="2.76" width=".33" height=".05"/>
        </g>
        <g>
          <g>
            <rect class="cls-4" x="3.45" y="2.84" width=".47" height=".04"/>
            <polygon class="cls-4" points="3.67 2.91 3.67 2.96 3.74 2.96 3.74 2.99 3.64 2.99 3.64 2.91 3.64 2.91 3.6 2.91 3.45 2.91 3.45 2.91 3.45 3.04 3.5 3.04 3.5 2.95 3.6 2.95 3.6 3.04 3.64 3.04 3.78 3.04 3.78 3.04 3.78 3.04 3.78 2.91 3.67 2.91"/>
            <rect class="cls-4" x="3.52" y="2.98" width=".05" height=".05"/>
          </g>
          <polygon class="cls-4" points="4.1 2.84 4.1 2.99 4.06 2.99 4.06 2.84 4.02 2.84 4.02 2.99 3.99 2.99 3.99 2.84 3.95 2.84 3.95 2.91 3.81 2.91 3.81 2.92 3.81 2.92 3.81 3.04 3.81 3.04 3.85 3.04 3.85 3.04 3.92 3.04 3.92 2.99 3.85 2.99 3.85 2.96 3.95 2.96 3.95 3.04 3.95 3.04 4.14 3.04 4.14 2.84 4.1 2.84"/>
          <rect class="cls-4" x="3.45" y="2.76" width=".33" height=".05"/>
          <rect class="cls-4" x="3.81" y="2.76" width=".33" height=".05"/>
        </g>
        <g>
          <g>
            <rect class="cls-4" x="4.16" y="2.84" width=".47" height=".04"/>
            <polygon class="cls-4" points="4.38 2.91 4.38 2.96 4.45 2.96 4.45 2.99 4.35 2.99 4.35 2.91 4.35 2.91 4.31 2.91 4.16 2.91 4.16 2.91 4.16 3.04 4.21 3.04 4.21 2.95 4.31 2.95 4.31 3.04 4.35 3.04 4.49 3.04 4.49 3.04 4.49 3.04 4.49 2.91 4.38 2.91"/>
            <rect class="cls-4" x="4.23" y="2.98" width=".05" height=".05"/>
          </g>
          <polygon class="cls-4" points="4.8 2.84 4.8 2.99 4.76 2.99 4.76 2.84 4.72 2.84 4.72 2.99 4.69 2.99 4.69 2.84 4.65 2.84 4.65 2.91 4.52 2.91 4.52 2.92 4.52 2.92 4.52 3.04 4.52 3.04 4.55 3.04 4.55 3.04 4.62 3.04 4.62 2.99 4.55 2.99 4.55 2.96 4.65 2.96 4.65 3.04 4.65 3.04 4.84 3.04 4.84 2.84 4.8 2.84"/>
          <rect class="cls-4" x="4.16" y="2.76" width=".33" height=".05"/>
          <rect class="cls-4" x="4.52" y="2.76" width=".33" height=".05"/>
        </g>
        <g>
          <g>
            <rect class="cls-4" x="4.87" y="2.84" width=".47" height=".04"/>
            <polygon class="cls-4" points="5.08 2.91 5.08 2.96 5.15 2.96 5.15 2.99 5.05 2.99 5.05 2.91 5.05 2.91 5.01 2.91 4.86 2.91 4.86 2.91 4.86 3.04 4.91 3.04 4.91 2.95 5.01 2.95 5.01 3.04 5.05 3.04 5.19 3.04 5.19 3.04 5.19 3.04 5.19 2.91 5.08 2.91"/>
            <rect class="cls-4" x="4.93" y="2.98" width=".05" height=".05"/>
          </g>
          <polygon class="cls-4" points="5.51 2.84 5.51 2.99 5.47 2.99 5.47 2.84 5.43 2.84 5.43 2.99 5.4 2.99 5.4 2.84 5.36 2.84 5.36 2.91 5.22 2.91 5.22 2.92 5.22 2.92 5.22 3.04 5.22 3.04 5.26 3.04 5.26 3.04 5.33 3.04 5.33 2.99 5.26 2.99 5.26 2.96 5.36 2.96 5.36 3.04 5.36 3.04 5.55 3.04 5.55 2.84 5.51 2.84"/>
          <rect class="cls-4" x="4.87" y="2.76" width=".33" height=".05"/>
          <rect class="cls-4" x="5.23" y="2.76" width=".33" height=".05"/>
        </g>
        <g>
          <g>
            <rect class="cls-4" x="5.57" y="2.84" width=".47" height=".04"/>
            <polygon class="cls-4" points="5.79 2.91 5.79 2.96 5.86 2.96 5.86 2.99 5.76 2.99 5.76 2.91 5.76 2.91 5.72 2.91 5.57 2.91 5.57 2.91 5.57 3.04 5.62 3.04 5.62 2.95 5.72 2.95 5.72 3.04 5.76 3.04 5.9 3.04 5.9 3.04 5.9 3.04 5.9 2.91 5.79 2.91"/>
            <rect class="cls-4" x="5.64" y="2.98" width=".05" height=".05"/>
          </g>
          <polygon class="cls-4" points="6.21 2.84 6.21 2.99 6.18 2.99 6.18 2.84 6.14 2.84 6.14 2.99 6.11 2.99 6.11 2.84 6.07 2.84 6.07 2.91 5.93 2.91 5.93 2.92 5.93 2.92 5.93 3.04 5.93 3.04 5.97 3.04 5.97 3.04 6.04 3.04 6.04 2.99 5.97 2.99 5.97 2.96 6.07 2.96 6.07 3.04 6.07 3.04 6.26 3.04 6.26 2.84 6.21 2.84"/>
          <rect class="cls-4" x="5.57" y="2.76" width=".33" height=".05"/>
          <rect class="cls-4" x="5.93" y="2.76" width=".33" height=".05"/>
        </g>
      </g>
    </g>
  </g>
</svg>